ISO-10303-21;
HEADER;
/* Generated by software containing ST-Developer
 * from STEP Tools, Inc. (www.steptools.com) 
 */

FILE_DESCRIPTION(
/* description */ (''),
/* implementation_level */ '2;1');

FILE_NAME(
/* name */ 'Fastener.step',
/* time_stamp */ '2026-06-12T18:54:52-06:00',
/* author */ (''),
/* organization */ (''),
/* preprocessor_version */ 'ST-DEVELOPER v20.1',
/* originating_system */ 'Autodesk Translation Framework v15.8.0.0',
/* authorisation */ '');

FILE_SCHEMA (('AUTOMOTIVE_DESIGN { 1 0 10303 214 3 1 1 }'));
ENDSEC;

DATA;
#10=MECHANICAL_DESIGN_GEOMETRIC_PRESENTATION_REPRESENTATION('',(#13),#959);
#11=SHAPE_REPRESENTATION_RELATIONSHIP('SRR','None',#966,#12);
#12=ADVANCED_BREP_SHAPE_REPRESENTATION('',(#14),#958);
#13=STYLED_ITEM('',(#975),#14);
#14=MANIFOLD_SOLID_BREP('Body5',#547);
#15=FACE_BOUND('',#72,.T.);
#16=FACE_BOUND('',#76,.T.);
#17=FACE_BOUND('',#84,.T.);
#18=FACE_BOUND('',#88,.T.);
#19=PLANE('',#573);
#20=PLANE('',#576);
#21=PLANE('',#582);
#22=PLANE('',#588);
#23=PLANE('',#590);
#24=PLANE('',#598);
#25=PLANE('',#603);
#26=PLANE('',#604);
#27=PLANE('',#607);
#28=PLANE('',#608);
#29=PLANE('',#609);
#30=PLANE('',#610);
#31=PLANE('',#611);
#32=PLANE('',#612);
#33=PLANE('',#613);
#34=PLANE('',#614);
#35=FACE_OUTER_BOUND('',#63,.T.);
#36=FACE_OUTER_BOUND('',#64,.T.);
#37=FACE_OUTER_BOUND('',#65,.T.);
#38=FACE_OUTER_BOUND('',#66,.T.);
#39=FACE_OUTER_BOUND('',#67,.T.);
#40=FACE_OUTER_BOUND('',#68,.T.);
#41=FACE_OUTER_BOUND('',#69,.T.);
#42=FACE_OUTER_BOUND('',#70,.T.);
#43=FACE_OUTER_BOUND('',#71,.T.);
#44=FACE_OUTER_BOUND('',#73,.T.);
#45=FACE_OUTER_BOUND('',#74,.T.);
#46=FACE_OUTER_BOUND('',#75,.T.);
#47=FACE_OUTER_BOUND('',#77,.T.);
#48=FACE_OUTER_BOUND('',#78,.T.);
#49=FACE_OUTER_BOUND('',#79,.T.);
#50=FACE_OUTER_BOUND('',#80,.T.);
#51=FACE_OUTER_BOUND('',#81,.T.);
#52=FACE_OUTER_BOUND('',#82,.T.);
#53=FACE_OUTER_BOUND('',#83,.T.);
#54=FACE_OUTER_BOUND('',#85,.T.);
#55=FACE_OUTER_BOUND('',#86,.T.);
#56=FACE_OUTER_BOUND('',#87,.T.);
#57=FACE_OUTER_BOUND('',#89,.T.);
#58=FACE_OUTER_BOUND('',#90,.T.);
#59=FACE_OUTER_BOUND('',#91,.T.);
#60=FACE_OUTER_BOUND('',#92,.T.);
#61=FACE_OUTER_BOUND('',#93,.T.);
#62=FACE_OUTER_BOUND('',#94,.T.);
#63=EDGE_LOOP('',(#351,#352,#353,#354,#355,#356,#357,#358));
#64=EDGE_LOOP('',(#359,#360,#361,#362));
#65=EDGE_LOOP('',(#363,#364,#365,#366));
#66=EDGE_LOOP('',(#367,#368,#369,#370));
#67=EDGE_LOOP('',(#371,#372,#373,#374));
#68=EDGE_LOOP('',(#375,#376,#377,#378));
#69=EDGE_LOOP('',(#379,#380,#381,#382,#383,#384));
#70=EDGE_LOOP('',(#385,#386,#387,#388,#389,#390,#391,#392));
#71=EDGE_LOOP('',(#393,#394,#395,#396,#397,#398,#399,#400,#401,#402));
#72=EDGE_LOOP('',(#403));
#73=EDGE_LOOP('',(#404,#405,#406,#407));
#74=EDGE_LOOP('',(#408,#409,#410,#411,#412,#413));
#75=EDGE_LOOP('',(#414,#415,#416,#417,#418,#419,#420,#421,#422,#423));
#76=EDGE_LOOP('',(#424));
#77=EDGE_LOOP('',(#425,#426,#427,#428));
#78=EDGE_LOOP('',(#429,#430,#431,#432));
#79=EDGE_LOOP('',(#433,#434,#435,#436));
#80=EDGE_LOOP('',(#437,#438,#439,#440));
#81=EDGE_LOOP('',(#441,#442,#443,#444));
#82=EDGE_LOOP('',(#445,#446,#447,#448));
#83=EDGE_LOOP('',(#449,#450,#451,#452,#453,#454,#455,#456,#457,#458));
#84=EDGE_LOOP('',(#459));
#85=EDGE_LOOP('',(#460,#461,#462,#463));
#86=EDGE_LOOP('',(#464,#465,#466,#467));
#87=EDGE_LOOP('',(#468,#469,#470,#471,#472,#473,#474,#475,#476,#477));
#88=EDGE_LOOP('',(#478));
#89=EDGE_LOOP('',(#479,#480,#481,#482,#483,#484,#485,#486));
#90=EDGE_LOOP('',(#487,#488,#489,#490));
#91=EDGE_LOOP('',(#491,#492,#493,#494));
#92=EDGE_LOOP('',(#495,#496,#497,#498));
#93=EDGE_LOOP('',(#499,#500,#501,#502));
#94=EDGE_LOOP('',(#503,#504,#505,#506));
#95=CIRCLE('',#563,14.0000002086163);
#96=CIRCLE('',#565,14.0000002086163);
#97=CIRCLE('',#567,1.475);
#98=CIRCLE('',#568,1.475);
#99=CIRCLE('',#570,1.475);
#100=CIRCLE('',#571,1.475);
#101=CIRCLE('',#574,10.8499999999999);
#102=CIRCLE('',#580,10.8499999999999);
#103=CIRCLE('',#583,37.5);
#104=CIRCLE('',#584,1.25);
#105=CIRCLE('',#585,1.25);
#106=CIRCLE('',#587,37.5);
#107=CIRCLE('',#591,37.5);
#108=CIRCLE('',#592,1.25);
#109=CIRCLE('',#593,1.25);
#110=CIRCLE('',#595,37.5);
#111=CIRCLE('',#597,1.25);
#112=CIRCLE('',#600,1.25);
#113=CIRCLE('',#602,1.25);
#114=CIRCLE('',#605,1.25);
#115=B_SPLINE_CURVE_WITH_KNOTS('',3,(#781,#782,#783,#784,#785,#786,#787,
#788),.UNSPECIFIED.,.F.,.F.,(4,2,2,4),(10.9299053538082,10.9824311079354,
11.2492400261713,11.4549948141497),.UNSPECIFIED.);
#116=B_SPLINE_CURVE_WITH_KNOTS('',3,(#792,#793,#794,#795,#796,#797,#798,
#799),.UNSPECIFIED.,.F.,.F.,(4,2,2,4),(8.14353933405508,8.34929412203341,
8.61610304026935,8.66862879439656),.UNSPECIFIED.);
#117=B_SPLINE_CURVE_WITH_KNOTS('',3,(#821,#822,#823,#824,#825,#826),
 .UNSPECIFIED.,.F.,.F.,(4,2,4),(4.19217250671928,4.46774032605774,4.82448551007264),
 .UNSPECIFIED.);
#118=B_SPLINE_CURVE_WITH_KNOTS('',3,(#835,#836,#837,#838,#839,#840),
 .UNSPECIFIED.,.F.,.F.,(4,2,4),(2.46891367829731,2.82565886231221,3.10122668165068),
 .UNSPECIFIED.);
#119=ELLIPSE('',#562,14.3178212766285,14.0000002086163);
#120=ELLIPSE('',#564,14.3178212766285,14.0000002086163);
#121=ELLIPSE('',#577,178.972763290955,37.5);
#122=ELLIPSE('',#578,11.0963113240391,10.8499999999999);
#123=ELLIPSE('',#581,11.0963113240391,10.8499999999999);
#124=ELLIPSE('',#589,178.972763290955,37.5);
#125=LINE('',#777,#173);
#126=LINE('',#803,#174);
#127=LINE('',#809,#175);
#128=LINE('',#815,#176);
#129=LINE('',#819,#177);
#130=LINE('',#827,#178);
#131=LINE('',#830,#179);
#132=LINE('',#834,#180);
#133=LINE('',#843,#181);
#134=LINE('',#847,#182);
#135=LINE('',#851,#183);
#136=LINE('',#855,#184);
#137=LINE('',#863,#185);
#138=LINE('',#867,#186);
#139=LINE('',#869,#187);
#140=LINE('',#871,#188);
#141=LINE('',#872,#189);
#142=LINE('',#876,#190);
#143=LINE('',#879,#191);
#144=LINE('',#882,#192);
#145=LINE('',#889,#193);
#146=LINE('',#893,#194);
#147=LINE('',#895,#195);
#148=LINE('',#897,#196);
#149=LINE('',#898,#197);
#150=LINE('',#902,#198);
#151=LINE('',#906,#199);
#152=LINE('',#909,#200);
#153=LINE('',#910,#201);
#154=LINE('',#914,#202);
#155=LINE('',#918,#203);
#156=LINE('',#921,#204);
#157=LINE('',#922,#205);
#158=LINE('',#925,#206);
#159=LINE('',#927,#207);
#160=LINE('',#929,#208);
#161=LINE('',#931,#209);
#162=LINE('',#934,#210);
#163=LINE('',#936,#211);
#164=LINE('',#939,#212);
#165=LINE('',#941,#213);
#166=LINE('',#943,#214);
#167=LINE('',#944,#215);
#168=LINE('',#946,#216);
#169=LINE('',#947,#217);
#170=LINE('',#949,#218);
#171=LINE('',#951,#219);
#172=LINE('',#954,#220);
#173=VECTOR('',#619,10.);
#174=VECTOR('',#626,10.);
#175=VECTOR('',#633,1.475);
#176=VECTOR('',#640,1.475);
#177=VECTOR('',#645,10.);
#178=VECTOR('',#646,10.);
#179=VECTOR('',#649,10.);
#180=VECTOR('',#654,10.);
#181=VECTOR('',#657,10.);
#182=VECTOR('',#660,10.);
#183=VECTOR('',#665,10.);
#184=VECTOR('',#668,10.);
#185=VECTOR('',#677,10.);
#186=VECTOR('',#680,10.);
#187=VECTOR('',#681,10.);
#188=VECTOR('',#682,10.);
#189=VECTOR('',#683,10.);
#190=VECTOR('',#688,37.5);
#191=VECTOR('',#691,10.);
#192=VECTOR('',#694,10.);
#193=VECTOR('',#701,10.);
#194=VECTOR('',#704,10.);
#195=VECTOR('',#705,10.);
#196=VECTOR('',#706,10.);
#197=VECTOR('',#707,10.);
#198=VECTOR('',#712,37.5);
#199=VECTOR('',#717,10.);
#200=VECTOR('',#720,10.);
#201=VECTOR('',#721,10.);
#202=VECTOR('',#726,10.);
#203=VECTOR('',#731,10.);
#204=VECTOR('',#734,10.);
#205=VECTOR('',#735,10.);
#206=VECTOR('',#738,10.);
#207=VECTOR('',#739,10.);
#208=VECTOR('',#740,10.);
#209=VECTOR('',#741,10.);
#210=VECTOR('',#746,10.);
#211=VECTOR('',#749,10.);
#212=VECTOR('',#752,10.);
#213=VECTOR('',#753,10.);
#214=VECTOR('',#754,10.);
#215=VECTOR('',#755,10.);
#216=VECTOR('',#758,10.);
#217=VECTOR('',#759,10.);
#218=VECTOR('',#762,10.);
#219=VECTOR('',#765,10.);
#220=VECTOR('',#770,10.);
#221=VERTEX_POINT('',#775);
#222=VERTEX_POINT('',#776);
#223=VERTEX_POINT('',#778);
#224=VERTEX_POINT('',#780);
#225=VERTEX_POINT('',#789);
#226=VERTEX_POINT('',#791);
#227=VERTEX_POINT('',#800);
#228=VERTEX_POINT('',#802);
#229=VERTEX_POINT('',#806);
#230=VERTEX_POINT('',#808);
#231=VERTEX_POINT('',#812);
#232=VERTEX_POINT('',#814);
#233=VERTEX_POINT('',#818);
#234=VERTEX_POINT('',#820);
#235=VERTEX_POINT('',#829);
#236=VERTEX_POINT('',#833);
#237=VERTEX_POINT('',#842);
#238=VERTEX_POINT('',#844);
#239=VERTEX_POINT('',#846);
#240=VERTEX_POINT('',#850);
#241=VERTEX_POINT('',#852);
#242=VERTEX_POINT('',#854);
#243=VERTEX_POINT('',#858);
#244=VERTEX_POINT('',#860);
#245=VERTEX_POINT('',#862);
#246=VERTEX_POINT('',#864);
#247=VERTEX_POINT('',#866);
#248=VERTEX_POINT('',#868);
#249=VERTEX_POINT('',#870);
#250=VERTEX_POINT('',#874);
#251=VERTEX_POINT('',#878);
#252=VERTEX_POINT('',#880);
#253=VERTEX_POINT('',#884);
#254=VERTEX_POINT('',#886);
#255=VERTEX_POINT('',#888);
#256=VERTEX_POINT('',#890);
#257=VERTEX_POINT('',#892);
#258=VERTEX_POINT('',#894);
#259=VERTEX_POINT('',#896);
#260=VERTEX_POINT('',#900);
#261=VERTEX_POINT('',#904);
#262=VERTEX_POINT('',#908);
#263=VERTEX_POINT('',#912);
#264=VERTEX_POINT('',#916);
#265=VERTEX_POINT('',#920);
#266=VERTEX_POINT('',#924);
#267=VERTEX_POINT('',#926);
#268=VERTEX_POINT('',#928);
#269=VERTEX_POINT('',#930);
#270=VERTEX_POINT('',#938);
#271=VERTEX_POINT('',#940);
#272=VERTEX_POINT('',#942);
#273=EDGE_CURVE('',#221,#222,#125,.T.);
#274=EDGE_CURVE('',#223,#222,#119,.T.);
#275=EDGE_CURVE('',#224,#223,#115,.T.);
#276=EDGE_CURVE('',#225,#224,#95,.T.);
#277=EDGE_CURVE('',#226,#225,#116,.T.);
#278=EDGE_CURVE('',#227,#226,#120,.T.);
#279=EDGE_CURVE('',#227,#228,#126,.T.);
#280=EDGE_CURVE('',#221,#228,#96,.T.);
#281=EDGE_CURVE('',#229,#229,#97,.T.);
#282=EDGE_CURVE('',#229,#230,#127,.T.);
#283=EDGE_CURVE('',#230,#230,#98,.T.);
#284=EDGE_CURVE('',#231,#231,#99,.T.);
#285=EDGE_CURVE('',#231,#232,#128,.T.);
#286=EDGE_CURVE('',#232,#232,#100,.T.);
#287=EDGE_CURVE('',#225,#233,#129,.T.);
#288=EDGE_CURVE('',#233,#234,#117,.T.);
#289=EDGE_CURVE('',#234,#226,#130,.T.);
#290=EDGE_CURVE('',#235,#224,#131,.T.);
#291=EDGE_CURVE('',#235,#233,#101,.T.);
#292=EDGE_CURVE('',#223,#236,#132,.T.);
#293=EDGE_CURVE('',#236,#235,#118,.T.);
#294=EDGE_CURVE('',#237,#222,#133,.T.);
#295=EDGE_CURVE('',#237,#238,#121,.T.);
#296=EDGE_CURVE('',#238,#239,#134,.T.);
#297=EDGE_CURVE('',#239,#236,#122,.T.);
#298=EDGE_CURVE('',#240,#239,#135,.T.);
#299=EDGE_CURVE('',#241,#240,#102,.T.);
#300=EDGE_CURVE('',#241,#242,#136,.T.);
#301=EDGE_CURVE('',#234,#242,#123,.T.);
#302=EDGE_CURVE('',#238,#243,#103,.F.);
#303=EDGE_CURVE('',#244,#243,#104,.T.);
#304=EDGE_CURVE('',#245,#244,#137,.T.);
#305=EDGE_CURVE('',#246,#245,#105,.T.);
#306=EDGE_CURVE('',#246,#247,#138,.T.);
#307=EDGE_CURVE('',#247,#248,#139,.T.);
#308=EDGE_CURVE('',#249,#248,#140,.T.);
#309=EDGE_CURVE('',#240,#249,#141,.T.);
#310=EDGE_CURVE('',#237,#250,#106,.T.);
#311=EDGE_CURVE('',#250,#243,#142,.T.);
#312=EDGE_CURVE('',#242,#251,#143,.T.);
#313=EDGE_CURVE('',#251,#252,#124,.T.);
#314=EDGE_CURVE('',#252,#227,#144,.T.);
#315=EDGE_CURVE('',#253,#252,#107,.T.);
#316=EDGE_CURVE('',#254,#253,#108,.T.);
#317=EDGE_CURVE('',#254,#255,#145,.T.);
#318=EDGE_CURVE('',#256,#255,#109,.T.);
#319=EDGE_CURVE('',#256,#257,#146,.T.);
#320=EDGE_CURVE('',#257,#258,#147,.T.);
#321=EDGE_CURVE('',#258,#259,#148,.T.);
#322=EDGE_CURVE('',#228,#259,#149,.T.);
#323=EDGE_CURVE('',#260,#251,#110,.F.);
#324=EDGE_CURVE('',#260,#253,#150,.T.);
#325=EDGE_CURVE('',#260,#261,#111,.T.);
#326=EDGE_CURVE('',#261,#254,#151,.T.);
#327=EDGE_CURVE('',#261,#262,#152,.T.);
#328=EDGE_CURVE('',#255,#262,#153,.T.);
#329=EDGE_CURVE('',#262,#263,#112,.T.);
#330=EDGE_CURVE('',#263,#256,#154,.T.);
#331=EDGE_CURVE('',#250,#264,#113,.T.);
#332=EDGE_CURVE('',#264,#244,#155,.T.);
#333=EDGE_CURVE('',#265,#264,#156,.T.);
#334=EDGE_CURVE('',#245,#265,#157,.T.);
#335=EDGE_CURVE('',#266,#221,#158,.T.);
#336=EDGE_CURVE('',#266,#267,#159,.T.);
#337=EDGE_CURVE('',#267,#268,#160,.T.);
#338=EDGE_CURVE('',#268,#269,#161,.T.);
#339=EDGE_CURVE('',#265,#269,#114,.T.);
#340=EDGE_CURVE('',#269,#246,#162,.T.);
#341=EDGE_CURVE('',#247,#268,#163,.T.);
#342=EDGE_CURVE('',#270,#241,#164,.T.);
#343=EDGE_CURVE('',#270,#271,#165,.T.);
#344=EDGE_CURVE('',#272,#271,#166,.T.);
#345=EDGE_CURVE('',#272,#263,#167,.T.);
#346=EDGE_CURVE('',#270,#259,#168,.T.);
#347=EDGE_CURVE('',#266,#249,#169,.T.);
#348=EDGE_CURVE('',#271,#258,#170,.T.);
#349=EDGE_CURVE('',#272,#257,#171,.T.);
#350=EDGE_CURVE('',#248,#267,#172,.T.);
#351=ORIENTED_EDGE('',*,*,#273,.T.);
#352=ORIENTED_EDGE('',*,*,#274,.F.);
#353=ORIENTED_EDGE('',*,*,#275,.F.);
#354=ORIENTED_EDGE('',*,*,#276,.F.);
#355=ORIENTED_EDGE('',*,*,#277,.F.);
#356=ORIENTED_EDGE('',*,*,#278,.F.);
#357=ORIENTED_EDGE('',*,*,#279,.T.);
#358=ORIENTED_EDGE('',*,*,#280,.F.);
#359=ORIENTED_EDGE('',*,*,#281,.F.);
#360=ORIENTED_EDGE('',*,*,#282,.T.);
#361=ORIENTED_EDGE('',*,*,#283,.F.);
#362=ORIENTED_EDGE('',*,*,#282,.F.);
#363=ORIENTED_EDGE('',*,*,#284,.F.);
#364=ORIENTED_EDGE('',*,*,#285,.T.);
#365=ORIENTED_EDGE('',*,*,#286,.F.);
#366=ORIENTED_EDGE('',*,*,#285,.F.);
#367=ORIENTED_EDGE('',*,*,#277,.T.);
#368=ORIENTED_EDGE('',*,*,#287,.T.);
#369=ORIENTED_EDGE('',*,*,#288,.T.);
#370=ORIENTED_EDGE('',*,*,#289,.T.);
#371=ORIENTED_EDGE('',*,*,#287,.F.);
#372=ORIENTED_EDGE('',*,*,#276,.T.);
#373=ORIENTED_EDGE('',*,*,#290,.F.);
#374=ORIENTED_EDGE('',*,*,#291,.T.);
#375=ORIENTED_EDGE('',*,*,#275,.T.);
#376=ORIENTED_EDGE('',*,*,#292,.T.);
#377=ORIENTED_EDGE('',*,*,#293,.T.);
#378=ORIENTED_EDGE('',*,*,#290,.T.);
#379=ORIENTED_EDGE('',*,*,#294,.F.);
#380=ORIENTED_EDGE('',*,*,#295,.T.);
#381=ORIENTED_EDGE('',*,*,#296,.T.);
#382=ORIENTED_EDGE('',*,*,#297,.T.);
#383=ORIENTED_EDGE('',*,*,#292,.F.);
#384=ORIENTED_EDGE('',*,*,#274,.T.);
#385=ORIENTED_EDGE('',*,*,#288,.F.);
#386=ORIENTED_EDGE('',*,*,#291,.F.);
#387=ORIENTED_EDGE('',*,*,#293,.F.);
#388=ORIENTED_EDGE('',*,*,#297,.F.);
#389=ORIENTED_EDGE('',*,*,#298,.F.);
#390=ORIENTED_EDGE('',*,*,#299,.F.);
#391=ORIENTED_EDGE('',*,*,#300,.T.);
#392=ORIENTED_EDGE('',*,*,#301,.F.);
#393=ORIENTED_EDGE('',*,*,#296,.F.);
#394=ORIENTED_EDGE('',*,*,#302,.T.);
#395=ORIENTED_EDGE('',*,*,#303,.F.);
#396=ORIENTED_EDGE('',*,*,#304,.F.);
#397=ORIENTED_EDGE('',*,*,#305,.F.);
#398=ORIENTED_EDGE('',*,*,#306,.T.);
#399=ORIENTED_EDGE('',*,*,#307,.T.);
#400=ORIENTED_EDGE('',*,*,#308,.F.);
#401=ORIENTED_EDGE('',*,*,#309,.F.);
#402=ORIENTED_EDGE('',*,*,#298,.T.);
#403=ORIENTED_EDGE('',*,*,#284,.T.);
#404=ORIENTED_EDGE('',*,*,#295,.F.);
#405=ORIENTED_EDGE('',*,*,#310,.T.);
#406=ORIENTED_EDGE('',*,*,#311,.T.);
#407=ORIENTED_EDGE('',*,*,#302,.F.);
#408=ORIENTED_EDGE('',*,*,#278,.T.);
#409=ORIENTED_EDGE('',*,*,#289,.F.);
#410=ORIENTED_EDGE('',*,*,#301,.T.);
#411=ORIENTED_EDGE('',*,*,#312,.T.);
#412=ORIENTED_EDGE('',*,*,#313,.T.);
#413=ORIENTED_EDGE('',*,*,#314,.T.);
#414=ORIENTED_EDGE('',*,*,#314,.F.);
#415=ORIENTED_EDGE('',*,*,#315,.F.);
#416=ORIENTED_EDGE('',*,*,#316,.F.);
#417=ORIENTED_EDGE('',*,*,#317,.T.);
#418=ORIENTED_EDGE('',*,*,#318,.F.);
#419=ORIENTED_EDGE('',*,*,#319,.T.);
#420=ORIENTED_EDGE('',*,*,#320,.T.);
#421=ORIENTED_EDGE('',*,*,#321,.T.);
#422=ORIENTED_EDGE('',*,*,#322,.F.);
#423=ORIENTED_EDGE('',*,*,#279,.F.);
#424=ORIENTED_EDGE('',*,*,#283,.T.);
#425=ORIENTED_EDGE('',*,*,#313,.F.);
#426=ORIENTED_EDGE('',*,*,#323,.F.);
#427=ORIENTED_EDGE('',*,*,#324,.T.);
#428=ORIENTED_EDGE('',*,*,#315,.T.);
#429=ORIENTED_EDGE('',*,*,#324,.F.);
#430=ORIENTED_EDGE('',*,*,#325,.T.);
#431=ORIENTED_EDGE('',*,*,#326,.T.);
#432=ORIENTED_EDGE('',*,*,#316,.T.);
#433=ORIENTED_EDGE('',*,*,#326,.F.);
#434=ORIENTED_EDGE('',*,*,#327,.T.);
#435=ORIENTED_EDGE('',*,*,#328,.F.);
#436=ORIENTED_EDGE('',*,*,#317,.F.);
#437=ORIENTED_EDGE('',*,*,#318,.T.);
#438=ORIENTED_EDGE('',*,*,#328,.T.);
#439=ORIENTED_EDGE('',*,*,#329,.T.);
#440=ORIENTED_EDGE('',*,*,#330,.T.);
#441=ORIENTED_EDGE('',*,*,#311,.F.);
#442=ORIENTED_EDGE('',*,*,#331,.T.);
#443=ORIENTED_EDGE('',*,*,#332,.T.);
#444=ORIENTED_EDGE('',*,*,#303,.T.);
#445=ORIENTED_EDGE('',*,*,#332,.F.);
#446=ORIENTED_EDGE('',*,*,#333,.F.);
#447=ORIENTED_EDGE('',*,*,#334,.F.);
#448=ORIENTED_EDGE('',*,*,#304,.T.);
#449=ORIENTED_EDGE('',*,*,#294,.T.);
#450=ORIENTED_EDGE('',*,*,#273,.F.);
#451=ORIENTED_EDGE('',*,*,#335,.F.);
#452=ORIENTED_EDGE('',*,*,#336,.T.);
#453=ORIENTED_EDGE('',*,*,#337,.T.);
#454=ORIENTED_EDGE('',*,*,#338,.T.);
#455=ORIENTED_EDGE('',*,*,#339,.F.);
#456=ORIENTED_EDGE('',*,*,#333,.T.);
#457=ORIENTED_EDGE('',*,*,#331,.F.);
#458=ORIENTED_EDGE('',*,*,#310,.F.);
#459=ORIENTED_EDGE('',*,*,#286,.T.);
#460=ORIENTED_EDGE('',*,*,#339,.T.);
#461=ORIENTED_EDGE('',*,*,#340,.T.);
#462=ORIENTED_EDGE('',*,*,#305,.T.);
#463=ORIENTED_EDGE('',*,*,#334,.T.);
#464=ORIENTED_EDGE('',*,*,#340,.F.);
#465=ORIENTED_EDGE('',*,*,#338,.F.);
#466=ORIENTED_EDGE('',*,*,#341,.F.);
#467=ORIENTED_EDGE('',*,*,#306,.F.);
#468=ORIENTED_EDGE('',*,*,#312,.F.);
#469=ORIENTED_EDGE('',*,*,#300,.F.);
#470=ORIENTED_EDGE('',*,*,#342,.F.);
#471=ORIENTED_EDGE('',*,*,#343,.T.);
#472=ORIENTED_EDGE('',*,*,#344,.F.);
#473=ORIENTED_EDGE('',*,*,#345,.T.);
#474=ORIENTED_EDGE('',*,*,#329,.F.);
#475=ORIENTED_EDGE('',*,*,#327,.F.);
#476=ORIENTED_EDGE('',*,*,#325,.F.);
#477=ORIENTED_EDGE('',*,*,#323,.T.);
#478=ORIENTED_EDGE('',*,*,#281,.T.);
#479=ORIENTED_EDGE('',*,*,#346,.F.);
#480=ORIENTED_EDGE('',*,*,#342,.T.);
#481=ORIENTED_EDGE('',*,*,#299,.T.);
#482=ORIENTED_EDGE('',*,*,#309,.T.);
#483=ORIENTED_EDGE('',*,*,#347,.F.);
#484=ORIENTED_EDGE('',*,*,#335,.T.);
#485=ORIENTED_EDGE('',*,*,#280,.T.);
#486=ORIENTED_EDGE('',*,*,#322,.T.);
#487=ORIENTED_EDGE('',*,*,#346,.T.);
#488=ORIENTED_EDGE('',*,*,#321,.F.);
#489=ORIENTED_EDGE('',*,*,#348,.F.);
#490=ORIENTED_EDGE('',*,*,#343,.F.);
#491=ORIENTED_EDGE('',*,*,#344,.T.);
#492=ORIENTED_EDGE('',*,*,#348,.T.);
#493=ORIENTED_EDGE('',*,*,#320,.F.);
#494=ORIENTED_EDGE('',*,*,#349,.F.);
#495=ORIENTED_EDGE('',*,*,#330,.F.);
#496=ORIENTED_EDGE('',*,*,#345,.F.);
#497=ORIENTED_EDGE('',*,*,#349,.T.);
#498=ORIENTED_EDGE('',*,*,#319,.F.);
#499=ORIENTED_EDGE('',*,*,#347,.T.);
#500=ORIENTED_EDGE('',*,*,#308,.T.);
#501=ORIENTED_EDGE('',*,*,#350,.T.);
#502=ORIENTED_EDGE('',*,*,#336,.F.);
#503=ORIENTED_EDGE('',*,*,#307,.F.);
#504=ORIENTED_EDGE('',*,*,#341,.T.);
#505=ORIENTED_EDGE('',*,*,#337,.F.);
#506=ORIENTED_EDGE('',*,*,#350,.F.);
#507=CYLINDRICAL_SURFACE('',#561,14.0000002086163);
#508=CYLINDRICAL_SURFACE('',#566,1.475);
#509=CYLINDRICAL_SURFACE('',#569,1.475);
#510=CYLINDRICAL_SURFACE('',#572,22.5);
#511=CYLINDRICAL_SURFACE('',#575,22.5);
#512=CYLINDRICAL_SURFACE('',#579,10.8499999999999);
#513=CYLINDRICAL_SURFACE('',#586,37.5);
#514=CYLINDRICAL_SURFACE('',#594,37.5);
#515=CYLINDRICAL_SURFACE('',#596,1.25);
#516=CYLINDRICAL_SURFACE('',#599,1.25);
#517=CYLINDRICAL_SURFACE('',#601,1.25);
#518=CYLINDRICAL_SURFACE('',#606,1.25);
#519=ADVANCED_FACE('',(#35),#507,.T.);
#520=ADVANCED_FACE('',(#36),#508,.F.);
#521=ADVANCED_FACE('',(#37),#509,.F.);
#522=ADVANCED_FACE('',(#38),#510,.T.);
#523=ADVANCED_FACE('',(#39),#19,.T.);
#524=ADVANCED_FACE('',(#40),#511,.T.);
#525=ADVANCED_FACE('',(#41),#20,.T.);
#526=ADVANCED_FACE('',(#42),#512,.F.);
#527=ADVANCED_FACE('',(#43,#15),#21,.F.);
#528=ADVANCED_FACE('',(#44),#513,.F.);
#529=ADVANCED_FACE('',(#45),#22,.T.);
#530=ADVANCED_FACE('',(#46,#16),#23,.T.);
#531=ADVANCED_FACE('',(#47),#514,.F.);
#532=ADVANCED_FACE('',(#48),#515,.T.);
#533=ADVANCED_FACE('',(#49),#24,.T.);
#534=ADVANCED_FACE('',(#50),#516,.T.);
#535=ADVANCED_FACE('',(#51),#517,.T.);
#536=ADVANCED_FACE('',(#52),#25,.T.);
#537=ADVANCED_FACE('',(#53,#17),#26,.T.);
#538=ADVANCED_FACE('',(#54),#518,.T.);
#539=ADVANCED_FACE('',(#55),#27,.T.);
#540=ADVANCED_FACE('',(#56,#18),#28,.F.);
#541=ADVANCED_FACE('',(#57),#29,.F.);
#542=ADVANCED_FACE('',(#58),#30,.T.);
#543=ADVANCED_FACE('',(#59),#31,.T.);
#544=ADVANCED_FACE('',(#60),#32,.T.);
#545=ADVANCED_FACE('',(#61),#33,.T.);
#546=ADVANCED_FACE('',(#62),#34,.T.);
#547=CLOSED_SHELL('',(#519,#520,#521,#522,#523,#524,#525,#526,#527,#528,
#529,#530,#531,#532,#533,#534,#535,#536,#537,#538,#539,#540,#541,#542,#543,
#544,#545,#546));
#548=DERIVED_UNIT_ELEMENT(#550,1.);
#549=DERIVED_UNIT_ELEMENT(#961,-3.);
#550=(
MASS_UNIT()
NAMED_UNIT(*)
SI_UNIT(.KILO.,.GRAM.)
);
#551=DERIVED_UNIT((#548,#549));
#552=MEASURE_REPRESENTATION_ITEM('density measure',
POSITIVE_RATIO_MEASURE(7850.),#551);
#553=PROPERTY_DEFINITION_REPRESENTATION(#558,#555);
#554=PROPERTY_DEFINITION_REPRESENTATION(#559,#556);
#555=REPRESENTATION('material name',(#557),#958);
#556=REPRESENTATION('density',(#552),#958);
#557=DESCRIPTIVE_REPRESENTATION_ITEM('Steel','Steel');
#558=PROPERTY_DEFINITION('material property','material name',#968);
#559=PROPERTY_DEFINITION('material property','density of part',#968);
#560=AXIS2_PLACEMENT_3D('',#773,#615,#616);
#561=AXIS2_PLACEMENT_3D('',#774,#617,#618);
#562=AXIS2_PLACEMENT_3D('',#779,#620,#621);
#563=AXIS2_PLACEMENT_3D('',#790,#622,#623);
#564=AXIS2_PLACEMENT_3D('',#801,#624,#625);
#565=AXIS2_PLACEMENT_3D('',#804,#627,#628);
#566=AXIS2_PLACEMENT_3D('',#805,#629,#630);
#567=AXIS2_PLACEMENT_3D('',#807,#631,#632);
#568=AXIS2_PLACEMENT_3D('',#810,#634,#635);
#569=AXIS2_PLACEMENT_3D('',#811,#636,#637);
#570=AXIS2_PLACEMENT_3D('',#813,#638,#639);
#571=AXIS2_PLACEMENT_3D('',#816,#641,#642);
#572=AXIS2_PLACEMENT_3D('',#817,#643,#644);
#573=AXIS2_PLACEMENT_3D('',#828,#647,#648);
#574=AXIS2_PLACEMENT_3D('',#831,#650,#651);
#575=AXIS2_PLACEMENT_3D('',#832,#652,#653);
#576=AXIS2_PLACEMENT_3D('',#841,#655,#656);
#577=AXIS2_PLACEMENT_3D('',#845,#658,#659);
#578=AXIS2_PLACEMENT_3D('',#848,#661,#662);
#579=AXIS2_PLACEMENT_3D('',#849,#663,#664);
#580=AXIS2_PLACEMENT_3D('',#853,#666,#667);
#581=AXIS2_PLACEMENT_3D('',#856,#669,#670);
#582=AXIS2_PLACEMENT_3D('',#857,#671,#672);
#583=AXIS2_PLACEMENT_3D('',#859,#673,#674);
#584=AXIS2_PLACEMENT_3D('',#861,#675,#676);
#585=AXIS2_PLACEMENT_3D('',#865,#678,#679);
#586=AXIS2_PLACEMENT_3D('',#873,#684,#685);
#587=AXIS2_PLACEMENT_3D('',#875,#686,#687);
#588=AXIS2_PLACEMENT_3D('',#877,#689,#690);
#589=AXIS2_PLACEMENT_3D('',#881,#692,#693);
#590=AXIS2_PLACEMENT_3D('',#883,#695,#696);
#591=AXIS2_PLACEMENT_3D('',#885,#697,#698);
#592=AXIS2_PLACEMENT_3D('',#887,#699,#700);
#593=AXIS2_PLACEMENT_3D('',#891,#702,#703);
#594=AXIS2_PLACEMENT_3D('',#899,#708,#709);
#595=AXIS2_PLACEMENT_3D('',#901,#710,#711);
#596=AXIS2_PLACEMENT_3D('',#903,#713,#714);
#597=AXIS2_PLACEMENT_3D('',#905,#715,#716);
#598=AXIS2_PLACEMENT_3D('',#907,#718,#719);
#599=AXIS2_PLACEMENT_3D('',#911,#722,#723);
#600=AXIS2_PLACEMENT_3D('',#913,#724,#725);
#601=AXIS2_PLACEMENT_3D('',#915,#727,#728);
#602=AXIS2_PLACEMENT_3D('',#917,#729,#730);
#603=AXIS2_PLACEMENT_3D('',#919,#732,#733);
#604=AXIS2_PLACEMENT_3D('',#923,#736,#737);
#605=AXIS2_PLACEMENT_3D('',#932,#742,#743);
#606=AXIS2_PLACEMENT_3D('',#933,#744,#745);
#607=AXIS2_PLACEMENT_3D('',#935,#747,#748);
#608=AXIS2_PLACEMENT_3D('',#937,#750,#751);
#609=AXIS2_PLACEMENT_3D('',#945,#756,#757);
#610=AXIS2_PLACEMENT_3D('',#948,#760,#761);
#611=AXIS2_PLACEMENT_3D('',#950,#763,#764);
#612=AXIS2_PLACEMENT_3D('',#952,#766,#767);
#613=AXIS2_PLACEMENT_3D('',#953,#768,#769);
#614=AXIS2_PLACEMENT_3D('',#955,#771,#772);
#615=DIRECTION('axis',(0.,0.,1.));
#616=DIRECTION('refdir',(1.,0.,0.));
#617=DIRECTION('center_axis',(1.,0.,0.));
#618=DIRECTION('ref_axis',(0.,-1.,-2.16247437564493E-16));
#619=DIRECTION('',(-1.,0.,0.));
#620=DIRECTION('center_axis',(-0.97780241407741,0.,-0.209529088730873));
#621=DIRECTION('ref_axis',(0.209529088730873,2.11447266488615E-16,-0.97780241407741));
#622=DIRECTION('center_axis',(-1.,0.,0.));
#623=DIRECTION('ref_axis',(0.,-1.,-2.16247437564493E-16));
#624=DIRECTION('center_axis',(-0.97780241407741,5.94648638393381E-46,-0.209529088730873));
#625=DIRECTION('ref_axis',(0.209529088730873,2.11447266488615E-16,-0.97780241407741));
#626=DIRECTION('',(1.,0.,0.));
#627=DIRECTION('center_axis',(1.,0.,0.));
#628=DIRECTION('ref_axis',(0.,-1.,-2.16247437564493E-16));
#629=DIRECTION('center_axis',(0.,0.,1.));
#630=DIRECTION('ref_axis',(1.,0.,0.));
#631=DIRECTION('center_axis',(-1.36225164800598E-45,-2.83802426667912E-45,
1.));
#632=DIRECTION('ref_axis',(1.,0.,0.));
#633=DIRECTION('',(0.,0.,1.));
#634=DIRECTION('center_axis',(0.,0.,-1.));
#635=DIRECTION('ref_axis',(1.,0.,0.));
#636=DIRECTION('center_axis',(0.,0.,1.));
#637=DIRECTION('ref_axis',(1.,0.,0.));
#638=DIRECTION('center_axis',(0.,0.,1.));
#639=DIRECTION('ref_axis',(1.,0.,0.));
#640=DIRECTION('',(0.,0.,1.));
#641=DIRECTION('center_axis',(0.,0.,-1.));
#642=DIRECTION('ref_axis',(1.,0.,0.));
#643=DIRECTION('center_axis',(0.,1.,2.83802426667912E-45));
#644=DIRECTION('ref_axis',(-0.994435119572265,0.,-0.105350809020601));
#645=DIRECTION('',(0.,1.,2.83802426667912E-45));
#646=DIRECTION('',(7.60609920191653E-62,-1.,-2.83802426667912E-45));
#647=DIRECTION('center_axis',(-1.,0.,0.));
#648=DIRECTION('ref_axis',(0.,-1.,0.));
#649=DIRECTION('',(0.,1.,0.));
#650=DIRECTION('center_axis',(1.,0.,0.));
#651=DIRECTION('ref_axis',(0.,-1.,-2.79028955853977E-16));
#652=DIRECTION('center_axis',(0.,1.,0.));
#653=DIRECTION('ref_axis',(-0.994435119572265,0.,-0.105350809020601));
#654=DIRECTION('',(0.,-1.,0.));
#655=DIRECTION('center_axis',(-0.97780241407741,0.,-0.209529088730873));
#656=DIRECTION('ref_axis',(-0.209529088730873,0.,0.97780241407741));
#657=DIRECTION('',(0.,-1.,0.));
#658=DIRECTION('center_axis',(0.97780241407741,0.,0.209529088730873));
#659=DIRECTION('ref_axis',(0.209529088730873,0.,-0.97780241407741));
#660=DIRECTION('',(0.,-1.,0.));
#661=DIRECTION('center_axis',(0.97780241407741,0.,0.209529088730873));
#662=DIRECTION('ref_axis',(0.209529088730873,2.72835186631518E-16,-0.977802414077409));
#663=DIRECTION('center_axis',(1.,0.,0.));
#664=DIRECTION('ref_axis',(0.,-1.,-2.79028955853977E-16));
#665=DIRECTION('',(-1.,0.,0.));
#666=DIRECTION('center_axis',(-1.,0.,0.));
#667=DIRECTION('ref_axis',(0.,-1.,-2.79028955853977E-16));
#668=DIRECTION('',(-1.,0.,0.));
#669=DIRECTION('center_axis',(0.97780241407741,-5.94648638393381E-46,0.209529088730873));
#670=DIRECTION('ref_axis',(0.209529088730873,2.72835186631518E-16,-0.977802414077409));
#671=DIRECTION('center_axis',(0.,0.,1.));
#672=DIRECTION('ref_axis',(-1.,0.,0.));
#673=DIRECTION('center_axis',(0.,0.,-1.));
#674=DIRECTION('ref_axis',(0.966149528334711,-0.257982729845653,0.));
#675=DIRECTION('center_axis',(0.,0.,1.));
#676=DIRECTION('ref_axis',(-0.707106781186547,0.707106781186547,0.));
#677=DIRECTION('',(-1.,0.,0.));
#678=DIRECTION('center_axis',(0.,0.,1.));
#679=DIRECTION('ref_axis',(0.707106781186547,0.707106781186547,0.));
#680=DIRECTION('',(0.,-1.,0.));
#681=DIRECTION('',(-0.901522748461385,-0.432731711348533,0.));
#682=DIRECTION('',(0.901490244962536,0.432799420329311,0.));
#683=DIRECTION('',(0.,1.,4.60526991476853E-17));
#684=DIRECTION('center_axis',(0.,0.,1.));
#685=DIRECTION('ref_axis',(0.966149528334711,-0.257982729845653,0.));
#686=DIRECTION('center_axis',(0.,0.,1.));
#687=DIRECTION('ref_axis',(0.966149528334711,-0.257982729845653,0.));
#688=DIRECTION('',(0.,0.,-1.));
#689=DIRECTION('center_axis',(-0.97780241407741,5.94648638393381E-46,-0.209529088730873));
#690=DIRECTION('ref_axis',(-0.209529088730873,0.,0.97780241407741));
#691=DIRECTION('',(0.,-1.,-2.83802426667912E-45));
#692=DIRECTION('center_axis',(0.97780241407741,-5.94648638393381E-46,0.209529088730873));
#693=DIRECTION('ref_axis',(-0.209529088730873,-6.20330716367315E-18,0.97780241407741));
#694=DIRECTION('',(6.08148057145525E-46,1.,0.));
#695=DIRECTION('center_axis',(0.,0.,1.));
#696=DIRECTION('ref_axis',(1.,0.,0.));
#697=DIRECTION('center_axis',(0.,0.,1.));
#698=DIRECTION('ref_axis',(-0.964763873941704,-0.263117212544136,0.));
#699=DIRECTION('center_axis',(0.,0.,-1.));
#700=DIRECTION('ref_axis',(-0.707106781186547,-0.707106781186547,0.));
#701=DIRECTION('',(1.,0.,0.));
#702=DIRECTION('center_axis',(0.,0.,-1.));
#703=DIRECTION('ref_axis',(0.707106781186547,-0.707106781186547,0.));
#704=DIRECTION('',(0.,1.,0.));
#705=DIRECTION('',(-0.901522934520641,0.432731323725579,0.));
#706=DIRECTION('',(-0.901523100649844,0.432730977623155,0.));
#707=DIRECTION('',(0.,1.,0.));
#708=DIRECTION('center_axis',(0.,0.,-1.));
#709=DIRECTION('ref_axis',(-0.964763873941704,-0.263117212544136,0.));
#710=DIRECTION('center_axis',(1.36225164800598E-45,2.83802426667912E-45,
-1.));
#711=DIRECTION('ref_axis',(-0.964763873941704,-0.263117212544136,0.));
#712=DIRECTION('',(0.,0.,1.));
#713=DIRECTION('center_axis',(0.,0.,1.));
#714=DIRECTION('ref_axis',(-0.707106781186547,-0.707106781186547,0.));
#715=DIRECTION('center_axis',(-1.36225164800598E-45,-2.83802426667912E-45,
1.));
#716=DIRECTION('ref_axis',(-0.707106781186547,-0.707106781186547,0.));
#717=DIRECTION('',(0.,0.,1.));
#718=DIRECTION('center_axis',(0.,-1.,0.));
#719=DIRECTION('ref_axis',(0.,0.,-1.));
#720=DIRECTION('',(1.,0.,0.));
#721=DIRECTION('',(0.,0.,-1.));
#722=DIRECTION('center_axis',(0.,0.,1.));
#723=DIRECTION('ref_axis',(0.707106781186547,-0.707106781186547,0.));
#724=DIRECTION('center_axis',(-1.36225164800598E-45,-2.83802426667912E-45,
1.));
#725=DIRECTION('ref_axis',(0.707106781186547,-0.707106781186547,0.));
#726=DIRECTION('',(0.,0.,1.));
#727=DIRECTION('center_axis',(0.,0.,1.));
#728=DIRECTION('ref_axis',(-0.707106781186547,0.707106781186547,0.));
#729=DIRECTION('center_axis',(0.,0.,-1.));
#730=DIRECTION('ref_axis',(-0.707106781186547,0.707106781186547,0.));
#731=DIRECTION('',(0.,0.,-1.));
#732=DIRECTION('center_axis',(0.,1.,0.));
#733=DIRECTION('ref_axis',(0.,0.,1.));
#734=DIRECTION('',(-1.,0.,0.));
#735=DIRECTION('',(0.,0.,1.));
#736=DIRECTION('center_axis',(0.,0.,1.));
#737=DIRECTION('ref_axis',(1.,0.,0.));
#738=DIRECTION('',(0.,1.,0.));
#739=DIRECTION('',(0.901490244962536,0.432799420329311,0.));
#740=DIRECTION('',(0.901522748461385,0.432731711348533,0.));
#741=DIRECTION('',(0.,1.,0.));
#742=DIRECTION('center_axis',(0.,0.,-1.));
#743=DIRECTION('ref_axis',(0.707106781186547,0.707106781186547,0.));
#744=DIRECTION('center_axis',(0.,0.,1.));
#745=DIRECTION('ref_axis',(0.707106781186547,0.707106781186547,0.));
#746=DIRECTION('',(0.,0.,-1.));
#747=DIRECTION('center_axis',(1.,0.,0.));
#748=DIRECTION('ref_axis',(0.,1.,0.));
#749=DIRECTION('',(0.,0.,1.));
#750=DIRECTION('center_axis',(-1.36225164800598E-45,-2.83802426667912E-45,
1.));
#751=DIRECTION('ref_axis',(-1.,0.,-1.36225164800598E-45));
#752=DIRECTION('',(0.,1.,0.));
#753=DIRECTION('',(0.901523100649844,-0.432730977623155,0.));
#754=DIRECTION('',(-0.901522934520641,0.432731323725579,0.));
#755=DIRECTION('',(0.,-1.,0.));
#756=DIRECTION('center_axis',(-1.,0.,0.));
#757=DIRECTION('ref_axis',(0.,-1.,0.));
#758=DIRECTION('',(0.,0.,1.));
#759=DIRECTION('',(0.,0.,-1.));
#760=DIRECTION('center_axis',(0.432730977623155,0.901523100649844,0.));
#761=DIRECTION('ref_axis',(-0.901523100649844,0.432730977623155,0.));
#762=DIRECTION('',(0.,0.,1.));
#763=DIRECTION('center_axis',(0.432731323725579,0.901522934520641,0.));
#764=DIRECTION('ref_axis',(-0.901522934520641,0.432731323725579,0.));
#765=DIRECTION('',(0.,0.,1.));
#766=DIRECTION('center_axis',(1.,0.,0.));
#767=DIRECTION('ref_axis',(0.,1.,0.));
#768=DIRECTION('center_axis',(0.432799420329311,-0.901490244962536,0.));
#769=DIRECTION('ref_axis',(0.901490244962536,0.432799420329311,0.));
#770=DIRECTION('',(0.,0.,1.));
#771=DIRECTION('center_axis',(0.432731711348533,-0.901522748461385,0.));
#772=DIRECTION('ref_axis',(0.901522748461385,0.432731711348533,0.));
#773=CARTESIAN_POINT('',(0.,0.,0.));
#774=CARTESIAN_POINT('Origin',(-2.49999934356468,-25.0000000000001,0.));
#775=CARTESIAN_POINT('',(6.56435323875826E-7,-11.3252054552453,3.));
#776=CARTESIAN_POINT('',(-3.14285648642182,-11.3252054552453,3.));
#777=CARTESIAN_POINT('',(-2.49999934356468,-11.3252054552453,3.));
#778=CARTESIAN_POINT('',(-3.50055366030639,-11.8015880577153,4.66925347812798));
#779=CARTESIAN_POINT('Origin',(-2.49999934356468,-25.0000000000001,0.));
#780=CARTESIAN_POINT('',(-3.99999934356468,-14.6102469299076,9.38365797457264));
#781=CARTESIAN_POINT('Ctrl Pts',(-3.99999934356467,-14.6102469299076,9.38365797457263));
#782=CARTESIAN_POINT('Ctrl Pts',(-3.99999934356467,-14.4918169637367,9.2525302088389));
#783=CARTESIAN_POINT('Ctrl Pts',(-3.99885194829139,-14.3763807375366,9.11972417426217));
#784=CARTESIAN_POINT('Ctrl Pts',(-3.98440516384204,-13.6932597638233,8.30352046000151));
#785=CARTESIAN_POINT('Ctrl Pts',(-3.93736475230237,-13.1406295896028,7.5019794090748));
#786=CARTESIAN_POINT('Ctrl Pts',(-3.75441388149201,-12.3310208511086,6.0038894628219));
#787=CARTESIAN_POINT('Ctrl Pts',(-3.64123243063082,-12.0338409420552,5.32575440630865));
#788=CARTESIAN_POINT('Ctrl Pts',(-3.50055366030639,-11.8015880577153,4.66925347812798));
#789=CARTESIAN_POINT('',(-3.99999934356468,-35.3897530700925,9.38365797457264));
#790=CARTESIAN_POINT('Origin',(-3.99999934356468,-25.0000000000001,0.));
#791=CARTESIAN_POINT('',(-3.50055366030639,-38.1984119422848,4.66925347812798));
#792=CARTESIAN_POINT('Ctrl Pts',(-3.50055366030639,-38.1984119422848,4.66925347812799));
#793=CARTESIAN_POINT('Ctrl Pts',(-3.64123243063082,-37.9661590579449,5.32575440630865));
#794=CARTESIAN_POINT('Ctrl Pts',(-3.75441388149201,-37.6689791488915,6.0038894628219));
#795=CARTESIAN_POINT('Ctrl Pts',(-3.93736475230237,-36.8593704103973,7.50197940907479));
#796=CARTESIAN_POINT('Ctrl Pts',(-3.98440516384204,-36.3067402361768,8.30352046000151));
#797=CARTESIAN_POINT('Ctrl Pts',(-3.99885194829139,-35.6236192624635,9.11972417426217));
#798=CARTESIAN_POINT('Ctrl Pts',(-3.99999934356467,-35.5081830362634,9.2525302088389));
#799=CARTESIAN_POINT('Ctrl Pts',(-3.99999934356467,-35.3897530700925,9.38365797457264));
#800=CARTESIAN_POINT('',(-3.14285648642182,-38.6747945447548,3.));
#801=CARTESIAN_POINT('Origin',(-2.49999934356468,-25.0000000000001,0.));
#802=CARTESIAN_POINT('',(6.56435323875826E-7,-38.6747945447548,3.));
#803=CARTESIAN_POINT('',(-2.49999934356468,-38.6747945447548,3.));
#804=CARTESIAN_POINT('Origin',(6.56435323875826E-7,-25.0000000000001,0.));
#805=CARTESIAN_POINT('Origin',(0.75000053085378,-41.4999996311963,-2.));
#806=CARTESIAN_POINT('',(-0.724999469146219,-41.4999996311963,-3.05311331771918E-15));
#807=CARTESIAN_POINT('Origin',(0.75000053085378,-41.4999996311963,-3.05311331771918E-15));
#808=CARTESIAN_POINT('',(-0.724999469146219,-41.4999996311963,3.));
#809=CARTESIAN_POINT('',(-0.724999469146219,-41.4999996311963,-2.));
#810=CARTESIAN_POINT('Origin',(0.75000053085378,-41.4999996311963,3.));
#811=CARTESIAN_POINT('Origin',(0.75000053085378,-8.5000003688037,-2.));
#812=CARTESIAN_POINT('',(-0.724999469146219,-8.5000003688037,-3.05311331771918E-15));
#813=CARTESIAN_POINT('Origin',(0.75000053085378,-8.5000003688037,-3.05311331771918E-15));
#814=CARTESIAN_POINT('',(-0.724999469146219,-8.5000003688037,3.));
#815=CARTESIAN_POINT('',(-0.724999469146219,-8.5000003688037,-2.));
#816=CARTESIAN_POINT('Origin',(0.75000053085378,-8.5000003688037,3.));
#817=CARTESIAN_POINT('Origin',(18.5000006564353,-29.8562500484288,9.38365797457264));
#818=CARTESIAN_POINT('',(-3.99999934356468,-30.4469682407959,9.38365797457264));
#819=CARTESIAN_POINT('',(-3.99999934356468,-29.8562500484288,9.38365797457264));
#820=CARTESIAN_POINT('',(-3.50055366030639,-34.7939048370397,4.66925347812798));
#821=CARTESIAN_POINT('Ctrl Pts',(-3.99999934356467,-30.4469682407959,9.38365797457264));
#822=CARTESIAN_POINT('Ctrl Pts',(-3.99999934356467,-31.285125604348,8.89712952773149));
#823=CARTESIAN_POINT('Ctrl Pts',(-3.98341318095052,-32.0464597531543,8.30127298425547));
#824=CARTESIAN_POINT('Ctrl Pts',(-3.86815397941215,-33.5304998454099,6.80903244993862));
#825=CARTESIAN_POINT('Ctrl Pts',(-3.73864855183368,-34.264182325457,5.780362971922));
#826=CARTESIAN_POINT('Ctrl Pts',(-3.50055366030639,-34.7939048370397,4.66925347812799));
#827=CARTESIAN_POINT('',(-3.50055366030639,-29.8562500484288,4.66925347812798));
#828=CARTESIAN_POINT('Origin',(-3.99999934356468,-26.7500000223518,7.00000010430813));
#829=CARTESIAN_POINT('',(-3.99999934356468,-19.5530317592042,9.38365797457264));
#830=CARTESIAN_POINT('',(-3.99999934356468,-22.7687500012398,9.38365797457264));
#831=CARTESIAN_POINT('Origin',(-3.99999934356468,-25.0000000000001,0.));
#832=CARTESIAN_POINT('Origin',(18.5000006564353,-22.7687500012398,9.38365797457264));
#833=CARTESIAN_POINT('',(-3.50055366030639,-15.2060951629604,4.66925347812799));
#834=CARTESIAN_POINT('',(-3.50055366030638,-22.7687500012398,4.66925347812799));
#835=CARTESIAN_POINT('Ctrl Pts',(-3.50055366030639,-15.2060951629604,4.66925347812799));
#836=CARTESIAN_POINT('Ctrl Pts',(-3.73864855183368,-15.7358176745431,5.780362971922));
#837=CARTESIAN_POINT('Ctrl Pts',(-3.86815397941214,-16.4695001545902,6.80903244993861));
#838=CARTESIAN_POINT('Ctrl Pts',(-3.98341318095051,-17.9535402468458,8.30127298425546));
#839=CARTESIAN_POINT('Ctrl Pts',(-3.99999934356467,-18.7148743956521,8.89712952773148));
#840=CARTESIAN_POINT('Ctrl Pts',(-3.99999934356467,-19.5530317592042,9.38365797457264));
#841=CARTESIAN_POINT('Origin',(-3.24999934356468,-18.7874999801279,3.5));
#842=CARTESIAN_POINT('',(-3.14285648642182,-8.70188617314584,3.));
#843=CARTESIAN_POINT('',(-3.14285648642182,-11.1435933286709,3.));
#844=CARTESIAN_POINT('',(-2.49999934356468,-6.5846132778792,-3.02746417101564E-15));
#845=CARTESIAN_POINT('Origin',(-38.6882946253014,3.24683039036356,168.878711314772));
#846=CARTESIAN_POINT('',(-2.49999934356468,-14.1500000000001,-1.45066011922553E-16));
#847=CARTESIAN_POINT('',(-2.49999934356468,-18.7874999801279,-3.33066907387547E-15));
#848=CARTESIAN_POINT('Origin',(-2.49999934356468,-25.0000000000001,0.));
#849=CARTESIAN_POINT('Origin',(-2.49999934356468,-25.0000000000001,0.));
#850=CARTESIAN_POINT('',(6.56435323875826E-7,-14.1500000000001,-1.45066011922553E-16));
#851=CARTESIAN_POINT('',(-2.49999934356468,-14.1500000000001,-1.45066011922553E-16));
#852=CARTESIAN_POINT('',(6.56435323875826E-7,-35.85,-3.02746417101564E-15));
#853=CARTESIAN_POINT('Origin',(6.56435323875826E-7,-25.0000000000001,0.));
#854=CARTESIAN_POINT('',(-2.49999934356468,-35.85,-3.02746417101564E-15));
#855=CARTESIAN_POINT('',(-2.49999934356468,-35.85,-3.02746417101564E-15));
#856=CARTESIAN_POINT('Origin',(-2.49999934356468,-25.0000000000001,0.));
#857=CARTESIAN_POINT('Origin',(0.749999206047507,-10.8249999379041,-3.02746417101564E-15));
#858=CARTESIAN_POINT('',(-2.45768731274974,-6.42752197884842,-3.02746417101564E-15));
#859=CARTESIAN_POINT('Origin',(-38.6882946253014,3.24683039036356,-3.02746417101564E-15));
#860=CARTESIAN_POINT('',(-1.25000040233135,-5.50000039115548,-3.02746417101564E-15));
#861=CARTESIAN_POINT('Origin',(-1.25000040233135,-6.75000039115548,-3.02746417101564E-15));
#862=CARTESIAN_POINT('',(2.7499996945262,-5.50000039115548,-3.02746417101564E-15));
#863=CARTESIAN_POINT('',(2.50000049173832,-5.50000039115548,-3.02746417101564E-15));
#864=CARTESIAN_POINT('',(3.9999996945262,-6.75000039115548,-3.02746417101564E-15));
#865=CARTESIAN_POINT('Origin',(2.7499996945262,-6.75000039115548,-3.02746417101564E-15));
#866=CARTESIAN_POINT('',(3.9999996945262,-11.3799993530847,-3.02746417101564E-15));
#867=CARTESIAN_POINT('',(3.9999996945262,-7.50000039115548,-3.02746417101564E-15));
#868=CARTESIAN_POINT('',(2.50000049173832,-12.1000002883375,-3.02746417101564E-15));
#869=CARTESIAN_POINT('',(3.9999996945262,-11.3799993530847,-3.02746417101564E-15));
#870=CARTESIAN_POINT('',(6.56435323875826E-7,-13.3002334418171,-1.05931968272787E-16));
#871=CARTESIAN_POINT('',(-1.77000124775804,-14.1499994846527,-3.02746417101564E-15));
#872=CARTESIAN_POINT('',(6.56435323875826E-7,-10.9999997913838,0.));
#873=CARTESIAN_POINT('Origin',(-38.6882946253014,3.24683039036356,-3.05311331771918E-15));
#874=CARTESIAN_POINT('',(-2.45768731274974,-6.42752197884842,3.));
#875=CARTESIAN_POINT('Origin',(-38.6882946253014,3.24683039036356,3.));
#876=CARTESIAN_POINT('',(-2.45768731274974,-6.42752197884842,-3.05311331771918E-15));
#877=CARTESIAN_POINT('Origin',(-3.24999934356468,-32.9625000745058,3.5));
#878=CARTESIAN_POINT('',(-2.49999934356468,-43.3476082839938,-3.05311331771918E-15));
#879=CARTESIAN_POINT('',(-2.49999934356468,-32.9625000745058,-3.33066907387547E-15));
#880=CARTESIAN_POINT('',(-3.14285648642182,-40.1802388249301,3.));
#881=CARTESIAN_POINT('Origin',(-39.5379786825827,-49.2160055509207,172.843903582084));
#882=CARTESIAN_POINT('',(-3.14285648642182,-36.0687501005828,3.));
#883=CARTESIAN_POINT('Origin',(0.749999646097423,-39.1750001266599,3.));
#884=CARTESIAN_POINT('',(-2.48509647588784,-43.4424520371133,3.));
#885=CARTESIAN_POINT('Origin',(-39.5379786825827,-49.2160055509207,3.));
#886=CARTESIAN_POINT('',(-1.25000040233135,-44.5000002533197,3.));
#887=CARTESIAN_POINT('Origin',(-1.25000040233135,-43.2500002533197,3.));
#888=CARTESIAN_POINT('',(2.7499996945262,-44.5000002533197,3.));
#889=CARTESIAN_POINT('',(3.9999996945262,-44.5000002533197,3.));
#890=CARTESIAN_POINT('',(3.9999996945262,-43.2500002533197,3.));
#891=CARTESIAN_POINT('Origin',(2.7499996945262,-43.2500002533197,3.));
#892=CARTESIAN_POINT('',(3.9999996945262,-38.6199998533726,3.));
#893=CARTESIAN_POINT('',(3.9999996945262,-42.5000002533197,3.));
#894=CARTESIAN_POINT('',(2.50000049173832,-37.8999997116625,3.));
#895=CARTESIAN_POINT('',(3.9999996945262,-38.6199998533726,3.));
#896=CARTESIAN_POINT('',(6.56435323875826E-7,-36.7000000976664,3.));
#897=CARTESIAN_POINT('',(-1.77083333333332,-35.85,3.));
#898=CARTESIAN_POINT('',(6.56435323875826E-7,-32.9625000745058,3.));
#899=CARTESIAN_POINT('Origin',(-39.5379786825827,-49.2160055509207,1.5));
#900=CARTESIAN_POINT('',(-2.48509647588784,-43.4424520371133,-3.05311331771918E-15));
#901=CARTESIAN_POINT('Origin',(-39.5379786825827,-49.2160055509207,-3.05311331771918E-15));
#902=CARTESIAN_POINT('',(-2.48509647588784,-43.4424520371133,1.5));
#903=CARTESIAN_POINT('Origin',(-1.25000040233135,-43.2500002533197,1.5));
#904=CARTESIAN_POINT('',(-1.25000040233135,-44.5000002533197,-3.02746417101564E-15));
#905=CARTESIAN_POINT('Origin',(-1.25000040233135,-43.2500002533197,-3.05311331771918E-15));
#906=CARTESIAN_POINT('',(-1.25000040233135,-44.5000002533197,1.5));
#907=CARTESIAN_POINT('Origin',(0.749999646097423,-44.5000002533197,0.999999999999997));
#908=CARTESIAN_POINT('',(2.7499996945262,-44.5000002533197,-3.02746417101564E-15));
#909=CARTESIAN_POINT('',(-2.50000040233135,-44.5000002533197,-3.02746417101564E-15));
#910=CARTESIAN_POINT('',(2.7499996945262,-44.5000002533197,0.499999999999997));
#911=CARTESIAN_POINT('Origin',(2.7499996945262,-43.2500002533197,0.499999999999997));
#912=CARTESIAN_POINT('',(3.9999996945262,-43.2500002533197,-3.02746417101564E-15));
#913=CARTESIAN_POINT('Origin',(2.7499996945262,-43.2500002533197,-3.05311331771918E-15));
#914=CARTESIAN_POINT('',(3.9999996945262,-43.2500002533197,0.499999999999997));
#915=CARTESIAN_POINT('Origin',(-1.25000040233135,-6.75000039115548,-3.02746417101564E-15));
#916=CARTESIAN_POINT('',(-1.25000040233135,-5.50000039115548,3.));
#917=CARTESIAN_POINT('Origin',(-1.25000040233135,-6.75000039115548,3.));
#918=CARTESIAN_POINT('',(-1.25000040233135,-5.50000039115548,-3.02746417101564E-15));
#919=CARTESIAN_POINT('Origin',(3.9999996945262,-5.50000039115548,-3.02746417101564E-15));
#920=CARTESIAN_POINT('',(2.7499996945262,-5.50000039115548,3.));
#921=CARTESIAN_POINT('',(2.50000049173832,-5.50000039115548,3.));
#922=CARTESIAN_POINT('',(2.7499996945262,-5.50000039115548,-3.02746417101564E-15));
#923=CARTESIAN_POINT('Origin',(0.749999206047507,-10.8249999379041,3.));
#924=CARTESIAN_POINT('',(6.56435323875826E-7,-13.3002334418171,3.));
#925=CARTESIAN_POINT('',(6.56435323875826E-7,-18.7874999801279,3.));
#926=CARTESIAN_POINT('',(2.50000049173832,-12.1000002883375,3.));
#927=CARTESIAN_POINT('',(-1.77000124775804,-14.1499994846527,3.));
#928=CARTESIAN_POINT('',(3.9999996945262,-11.3799993530847,3.));
#929=CARTESIAN_POINT('',(3.9999996945262,-11.3799993530847,3.));
#930=CARTESIAN_POINT('',(3.9999996945262,-6.75000039115548,3.));
#931=CARTESIAN_POINT('',(3.9999996945262,-7.50000039115548,3.));
#932=CARTESIAN_POINT('Origin',(2.7499996945262,-6.75000039115548,3.));
#933=CARTESIAN_POINT('Origin',(2.7499996945262,-6.75000039115548,-3.02746417101564E-15));
#934=CARTESIAN_POINT('',(3.9999996945262,-6.75000039115548,-3.02746417101564E-15));
#935=CARTESIAN_POINT('Origin',(3.9999996945262,-11.3799993530847,-3.02746417101564E-15));
#936=CARTESIAN_POINT('',(3.9999996945262,-11.3799993530847,-3.02746417101564E-15));
#937=CARTESIAN_POINT('Origin',(0.749999646097423,-39.1750001266599,-3.02746417101564E-15));
#938=CARTESIAN_POINT('',(6.56435323875826E-7,-36.7000000976664,-3.02746417101564E-15));
#939=CARTESIAN_POINT('',(6.56435323875826E-7,-35.85,-3.02746417101564E-15));
#940=CARTESIAN_POINT('',(2.50000049173832,-37.8999997116625,-3.02746417101564E-15));
#941=CARTESIAN_POINT('',(-1.77083333333332,-35.85,-3.02746417101564E-15));
#942=CARTESIAN_POINT('',(3.9999996945262,-38.6199998533726,-3.02746417101564E-15));
#943=CARTESIAN_POINT('',(3.9999996945262,-38.6199998533726,-3.02746417101564E-15));
#944=CARTESIAN_POINT('',(3.9999996945262,-42.5000002533197,-3.02746417101564E-15));
#945=CARTESIAN_POINT('Origin',(6.56435323875826E-7,-26.7500000223518,7.00000010430813));
#946=CARTESIAN_POINT('',(6.56435323875826E-7,-36.7000000976664,3.50000005215406));
#947=CARTESIAN_POINT('',(6.56435323875826E-7,-13.3002334418171,3.50000005215406));
#948=CARTESIAN_POINT('Origin',(2.50000049173832,-37.8999997116625,-3.02746417101564E-15));
#949=CARTESIAN_POINT('',(2.50000049173832,-37.8999997116625,-3.02746417101564E-15));
#950=CARTESIAN_POINT('Origin',(3.9999996945262,-38.6199998533726,-3.02746417101564E-15));
#951=CARTESIAN_POINT('',(3.9999996945262,-38.6199998533726,-3.02746417101564E-15));
#952=CARTESIAN_POINT('Origin',(3.9999996945262,-42.5000002533197,-3.02746417101564E-15));
#953=CARTESIAN_POINT('Origin',(-1.77000124775804,-14.1499994846527,-3.02746417101564E-15));
#954=CARTESIAN_POINT('',(2.50000049173832,-12.1000002883375,-3.02746417101564E-15));
#955=CARTESIAN_POINT('Origin',(2.50000049173832,-12.1000002883375,-3.02746417101564E-15));
#956=UNCERTAINTY_MEASURE_WITH_UNIT(LENGTH_MEASURE(0.01),#960,
'DISTANCE_ACCURACY_VALUE',
'Maximum model space distance between geometric entities at asserted c
onnectivities');
#957=UNCERTAINTY_MEASURE_WITH_UNIT(LENGTH_MEASURE(0.01),#960,
'DISTANCE_ACCURACY_VALUE',
'Maximum model space distance between geometric entities at asserted c
onnectivities');
#958=(
GEOMETRIC_REPRESENTATION_CONTEXT(3)
GLOBAL_UNCERTAINTY_ASSIGNED_CONTEXT((#956))
GLOBAL_UNIT_ASSIGNED_CONTEXT((#960,#962,#963))
REPRESENTATION_CONTEXT('','3D')
);
#959=(
GEOMETRIC_REPRESENTATION_CONTEXT(3)
GLOBAL_UNCERTAINTY_ASSIGNED_CONTEXT((#957))
GLOBAL_UNIT_ASSIGNED_CONTEXT((#960,#962,#963))
REPRESENTATION_CONTEXT('','3D')
);
#960=(
LENGTH_UNIT()
NAMED_UNIT(*)
SI_UNIT(.MILLI.,.METRE.)
);
#961=(
LENGTH_UNIT()
NAMED_UNIT(*)
SI_UNIT($,.METRE.)
);
#962=(
NAMED_UNIT(*)
PLANE_ANGLE_UNIT()
SI_UNIT($,.RADIAN.)
);
#963=(
NAMED_UNIT(*)
SI_UNIT($,.STERADIAN.)
SOLID_ANGLE_UNIT()
);
#964=SHAPE_DEFINITION_REPRESENTATION(#965,#966);
#965=PRODUCT_DEFINITION_SHAPE('',$,#968);
#966=SHAPE_REPRESENTATION('',(#560),#958);
#967=PRODUCT_DEFINITION_CONTEXT('part definition',#972,'design');
#968=PRODUCT_DEFINITION('Fastener','Fastener v3',#969,#967);
#969=PRODUCT_DEFINITION_FORMATION('',$,#974);
#970=PRODUCT_RELATED_PRODUCT_CATEGORY('Fastener v3','Fastener v3',(#974));
#971=APPLICATION_PROTOCOL_DEFINITION('international standard',
'automotive_design',2009,#972);
#972=APPLICATION_CONTEXT(
'Core Data for Automotive Mechanical Design Process');
#973=PRODUCT_CONTEXT('part definition',#972,'mechanical');
#974=PRODUCT('Fastener','Fastener v3',$,(#973));
#975=PRESENTATION_STYLE_ASSIGNMENT((#976));
#976=SURFACE_STYLE_USAGE(.BOTH.,#977);
#977=SURFACE_SIDE_STYLE('',(#978));
#978=SURFACE_STYLE_FILL_AREA(#979);
#979=FILL_AREA_STYLE('Steel - Satin',(#980));
#980=FILL_AREA_STYLE_COLOUR('Steel - Satin',#981);
#981=COLOUR_RGB('Steel - Satin',0.627450980392157,0.627450980392157,0.627450980392157);
ENDSEC;
END-ISO-10303-21;
