ISO-10303-21;
HEADER;
/* Generated by software containing ST-Developer
 * from STEP Tools, Inc. (www.steptools.com) 
 */

FILE_DESCRIPTION(
/* description */ (''),
/* implementation_level */ '2;1');

FILE_NAME(
/* name */ 'Target.step',
/* time_stamp */ '2026-06-12T18:54:39-06:00',
/* author */ (''),
/* organization */ (''),
/* preprocessor_version */ 'ST-DEVELOPER v20.1',
/* originating_system */ 'Autodesk Translation Framework v15.8.0.0',
/* authorisation */ '');

FILE_SCHEMA (('AUTOMOTIVE_DESIGN { 1 0 10303 214 3 1 1 }'));
ENDSEC;

DATA;
#10=MECHANICAL_DESIGN_GEOMETRIC_PRESENTATION_REPRESENTATION('',(#13),#1259);
#11=SHAPE_REPRESENTATION_RELATIONSHIP('SRR','None',#1266,#12);
#12=ADVANCED_BREP_SHAPE_REPRESENTATION('',(#14),#1258);
#13=STYLED_ITEM('',(#1275),#14);
#14=MANIFOLD_SOLID_BREP('Body3',#746);
#15=(
BOUNDED_SURFACE()
B_SPLINE_SURFACE(1,2,((#1181,#1182,#1183),(#1184,#1185,#1186)),
 .UNSPECIFIED.,.F.,.F.,.F.)
B_SPLINE_SURFACE_WITH_KNOTS((2,2),(3,3),(-8.05705528897598E-20,0.00598041855139522),
(-2.00039681490647,-1.14120797446271),.UNSPECIFIED.)
GEOMETRIC_REPRESENTATION_ITEM()
RATIONAL_B_SPLINE_SURFACE(((1.,0.909134749277665,1.),(1.,0.909134749277665,
1.)))
REPRESENTATION_ITEM('')
SURFACE()
);
#16=(
BOUNDED_SURFACE()
B_SPLINE_SURFACE(1,2,((#1194,#1195,#1196),(#1197,#1198,#1199)),
 .UNSPECIFIED.,.F.,.F.,.F.)
B_SPLINE_SURFACE_WITH_KNOTS((2,2),(3,3),(-3.5700035183806E-48,0.119999402138285),
(1.5707963267949,2.35619449019235),.UNSPECIFIED.)
GEOMETRIC_REPRESENTATION_ITEM()
RATIONAL_B_SPLINE_SURFACE(((1.,0.923879532511287,1.),(1.,0.923879532511287,
1.)))
REPRESENTATION_ITEM('')
SURFACE()
);
#17=(
BOUNDED_SURFACE()
B_SPLINE_SURFACE(1,2,((#1207,#1208,#1209),(#1210,#1211,#1212)),
 .UNSPECIFIED.,.F.,.F.,.F.)
B_SPLINE_SURFACE_WITH_KNOTS((2,2),(3,3),(-5.92212335609131E-48,0.15152212451056),
(2.00038467912708,2.35619449019234),.UNSPECIFIED.)
GEOMETRIC_REPRESENTATION_ITEM()
RATIONAL_B_SPLINE_SURFACE(((1.,0.984216617131293,1.),(1.,0.984216617131293,
1.)))
REPRESENTATION_ITEM('')
SURFACE()
);
#18=(
BOUNDED_SURFACE()
B_SPLINE_SURFACE(1,2,((#1216,#1217,#1218),(#1219,#1220,#1221)),
 .UNSPECIFIED.,.F.,.F.,.F.)
B_SPLINE_SURFACE_WITH_KNOTS((2,2),(3,3),(-2.34187669256869E-17,0.151522126768415),
(0.785398163397448,1.14120797446271),.UNSPECIFIED.)
GEOMETRIC_REPRESENTATION_ITEM()
RATIONAL_B_SPLINE_SURFACE(((1.,0.984216617131293,1.),(1.,0.984216617131293,
1.)))
REPRESENTATION_ITEM('')
SURFACE()
);
#19=(
BOUNDED_SURFACE()
B_SPLINE_SURFACE(1,2,((#1231,#1232,#1233),(#1234,#1235,#1236)),
 .UNSPECIFIED.,.F.,.F.,.F.)
B_SPLINE_SURFACE_WITH_KNOTS((2,2),(3,3),(0.,0.119999402138284),(0.785398163397448,
1.5707963267949),.UNSPECIFIED.)
GEOMETRIC_REPRESENTATION_ITEM()
RATIONAL_B_SPLINE_SURFACE(((1.,0.923879532511287,1.),(1.,0.923879532511287,
1.)))
REPRESENTATION_ITEM('')
SURFACE()
);
#20=ELLIPSE('',#792,12.5000622775723,12.5);
#21=ELLIPSE('',#793,12.5000622775723,12.5000000000001);
#22=ELLIPSE('',#794,9.89954440544729,9.89949508412564);
#23=ELLIPSE('',#795,9.89954440544729,9.89949508412564);
#24=ELLIPSE('',#796,9.89954440544729,9.89949508412564);
#25=ELLIPSE('',#800,9.89951974475575,9.89949508412564);
#26=ELLIPSE('',#801,9.89951974475575,9.89949508412564);
#27=ELLIPSE('',#802,12.5000622775723,12.5);
#28=ELLIPSE('',#804,9.89954440544729,9.89949508412564);
#29=ELLIPSE('',#805,9.89954440544729,9.89949508412564);
#30=ELLIPSE('',#807,12.5000622775723,12.5000000000001);
#31=FACE_BOUND('',#103,.T.);
#32=FACE_BOUND('',#108,.T.);
#33=FACE_BOUND('',#114,.T.);
#34=FACE_BOUND('',#121,.T.);
#35=PLANE('',#766);
#36=PLANE('',#767);
#37=PLANE('',#772);
#38=PLANE('',#773);
#39=PLANE('',#777);
#40=PLANE('',#781);
#41=PLANE('',#783);
#42=PLANE('',#786);
#43=PLANE('',#787);
#44=PLANE('',#788);
#45=PLANE('',#789);
#46=PLANE('',#790);
#47=PLANE('',#791);
#48=PLANE('',#797);
#49=PLANE('',#798);
#50=PLANE('',#799);
#51=PLANE('',#803);
#52=PLANE('',#806);
#53=PLANE('',#808);
#54=PLANE('',#809);
#55=PLANE('',#810);
#56=PLANE('',#813);
#57=PLANE('',#814);
#58=PLANE('',#817);
#59=FACE_OUTER_BOUND('',#96,.T.);
#60=FACE_OUTER_BOUND('',#97,.T.);
#61=FACE_OUTER_BOUND('',#98,.T.);
#62=FACE_OUTER_BOUND('',#99,.T.);
#63=FACE_OUTER_BOUND('',#100,.T.);
#64=FACE_OUTER_BOUND('',#101,.T.);
#65=FACE_OUTER_BOUND('',#102,.T.);
#66=FACE_OUTER_BOUND('',#104,.T.);
#67=FACE_OUTER_BOUND('',#105,.T.);
#68=FACE_OUTER_BOUND('',#106,.T.);
#69=FACE_OUTER_BOUND('',#107,.T.);
#70=FACE_OUTER_BOUND('',#109,.T.);
#71=FACE_OUTER_BOUND('',#110,.T.);
#72=FACE_OUTER_BOUND('',#111,.T.);
#73=FACE_OUTER_BOUND('',#112,.T.);
#74=FACE_OUTER_BOUND('',#113,.T.);
#75=FACE_OUTER_BOUND('',#115,.T.);
#76=FACE_OUTER_BOUND('',#116,.T.);
#77=FACE_OUTER_BOUND('',#117,.T.);
#78=FACE_OUTER_BOUND('',#118,.T.);
#79=FACE_OUTER_BOUND('',#119,.T.);
#80=FACE_OUTER_BOUND('',#120,.T.);
#81=FACE_OUTER_BOUND('',#122,.T.);
#82=FACE_OUTER_BOUND('',#123,.T.);
#83=FACE_OUTER_BOUND('',#124,.T.);
#84=FACE_OUTER_BOUND('',#125,.T.);
#85=FACE_OUTER_BOUND('',#126,.T.);
#86=FACE_OUTER_BOUND('',#127,.T.);
#87=FACE_OUTER_BOUND('',#128,.T.);
#88=FACE_OUTER_BOUND('',#129,.T.);
#89=FACE_OUTER_BOUND('',#130,.T.);
#90=FACE_OUTER_BOUND('',#131,.T.);
#91=FACE_OUTER_BOUND('',#132,.T.);
#92=FACE_OUTER_BOUND('',#133,.T.);
#93=FACE_OUTER_BOUND('',#134,.T.);
#94=FACE_OUTER_BOUND('',#135,.T.);
#95=FACE_OUTER_BOUND('',#136,.T.);
#96=EDGE_LOOP('',(#489,#490,#491,#492));
#97=EDGE_LOOP('',(#493,#494,#495,#496));
#98=EDGE_LOOP('',(#497,#498,#499,#500,#501,#502));
#99=EDGE_LOOP('',(#503,#504,#505,#506,#507,#508));
#100=EDGE_LOOP('',(#509,#510,#511,#512));
#101=EDGE_LOOP('',(#513,#514,#515,#516));
#102=EDGE_LOOP('',(#517,#518,#519,#520,#521,#522));
#103=EDGE_LOOP('',(#523));
#104=EDGE_LOOP('',(#524,#525,#526,#527));
#105=EDGE_LOOP('',(#528,#529,#530,#531));
#106=EDGE_LOOP('',(#532,#533,#534,#535));
#107=EDGE_LOOP('',(#536,#537,#538,#539,#540,#541));
#108=EDGE_LOOP('',(#542));
#109=EDGE_LOOP('',(#543,#544,#545,#546));
#110=EDGE_LOOP('',(#547,#548,#549,#550));
#111=EDGE_LOOP('',(#551,#552,#553,#554,#555,#556));
#112=EDGE_LOOP('',(#557,#558,#559,#560,#561,#562));
#113=EDGE_LOOP('',(#563,#564,#565,#566,#567,#568,#569,#570,#571,#572,#573,
#574,#575,#576));
#114=EDGE_LOOP('',(#577));
#115=EDGE_LOOP('',(#578,#579,#580,#581));
#116=EDGE_LOOP('',(#582,#583,#584,#585));
#117=EDGE_LOOP('',(#586,#587,#588,#589,#590,#591,#592,#593,#594,#595,#596,
#597));
#118=EDGE_LOOP('',(#598,#599,#600,#601));
#119=EDGE_LOOP('',(#602,#603,#604,#605));
#120=EDGE_LOOP('',(#606,#607,#608,#609,#610,#611,#612,#613,#614,#615,#616,
#617,#618,#619));
#121=EDGE_LOOP('',(#620));
#122=EDGE_LOOP('',(#621,#622,#623,#624,#625));
#123=EDGE_LOOP('',(#626,#627,#628,#629));
#124=EDGE_LOOP('',(#630,#631,#632,#633));
#125=EDGE_LOOP('',(#634,#635,#636,#637,#638));
#126=EDGE_LOOP('',(#639,#640,#641,#642,#643));
#127=EDGE_LOOP('',(#644,#645,#646,#647));
#128=EDGE_LOOP('',(#648,#649,#650,#651));
#129=EDGE_LOOP('',(#652,#653,#654,#655));
#130=EDGE_LOOP('',(#656,#657,#658,#659));
#131=EDGE_LOOP('',(#660,#661,#662,#663,#664,#665,#666,#667,#668,#669,#670,
#671));
#132=EDGE_LOOP('',(#672,#673,#674,#675,#676));
#133=EDGE_LOOP('',(#677,#678,#679,#680));
#134=EDGE_LOOP('',(#681,#682,#683,#684,#685,#686));
#135=EDGE_LOOP('',(#687,#688,#689,#690));
#136=EDGE_LOOP('',(#691,#692,#693,#694,#695,#696,#697,#698,#699,#700));
#137=LINE('',#1021,#217);
#138=LINE('',#1027,#218);
#139=LINE('',#1032,#219);
#140=LINE('',#1034,#220);
#141=LINE('',#1036,#221);
#142=LINE('',#1038,#222);
#143=LINE('',#1040,#223);
#144=LINE('',#1041,#224);
#145=LINE('',#1044,#225);
#146=LINE('',#1046,#226);
#147=LINE('',#1050,#227);
#148=LINE('',#1051,#228);
#149=LINE('',#1057,#229);
#150=LINE('',#1060,#230);
#151=LINE('',#1063,#231);
#152=LINE('',#1065,#232);
#153=LINE('',#1066,#233);
#154=LINE('',#1069,#234);
#155=LINE('',#1071,#235);
#156=LINE('',#1073,#236);
#157=LINE('',#1077,#237);
#158=LINE('',#1081,#238);
#159=LINE('',#1082,#239);
#160=LINE('',#1088,#240);
#161=LINE('',#1091,#241);
#162=LINE('',#1094,#242);
#163=LINE('',#1098,#243);
#164=LINE('',#1100,#244);
#165=LINE('',#1101,#245);
#166=LINE('',#1104,#246);
#167=LINE('',#1105,#247);
#168=LINE('',#1109,#248);
#169=LINE('',#1112,#249);
#170=LINE('',#1114,#250);
#171=LINE('',#1116,#251);
#172=LINE('',#1117,#252);
#173=LINE('',#1120,#253);
#174=LINE('',#1122,#254);
#175=LINE('',#1124,#255);
#176=LINE('',#1126,#256);
#177=LINE('',#1127,#257);
#178=LINE('',#1130,#258);
#179=LINE('',#1132,#259);
#180=LINE('',#1134,#260);
#181=LINE('',#1136,#261);
#182=LINE('',#1138,#262);
#183=LINE('',#1139,#263);
#184=LINE('',#1141,#264);
#185=LINE('',#1142,#265);
#186=LINE('',#1144,#266);
#187=LINE('',#1147,#267);
#188=LINE('',#1148,#268);
#189=LINE('',#1154,#269);
#190=LINE('',#1155,#270);
#191=LINE('',#1156,#271);
#192=LINE('',#1160,#272);
#193=LINE('',#1167,#273);
#194=LINE('',#1169,#274);
#195=LINE('',#1171,#275);
#196=LINE('',#1174,#276);
#197=LINE('',#1175,#277);
#198=LINE('',#1177,#278);
#199=LINE('',#1179,#279);
#200=LINE('',#1180,#280);
#201=LINE('',#1188,#281);
#202=LINE('',#1193,#282);
#203=LINE('',#1202,#283);
#204=LINE('',#1205,#284);
#205=LINE('',#1206,#285);
#206=LINE('',#1215,#286);
#207=LINE('',#1225,#287);
#208=LINE('',#1226,#288);
#209=LINE('',#1229,#289);
#210=LINE('',#1230,#290);
#211=LINE('',#1241,#291);
#212=LINE('',#1242,#292);
#213=LINE('',#1245,#293);
#214=LINE('',#1246,#294);
#215=LINE('',#1250,#295);
#216=LINE('',#1252,#296);
#217=VECTOR('',#824,1.475);
#218=VECTOR('',#831,1.475);
#219=VECTOR('',#836,10.);
#220=VECTOR('',#837,10.);
#221=VECTOR('',#838,10.);
#222=VECTOR('',#839,10.);
#223=VECTOR('',#840,10.);
#224=VECTOR('',#841,10.);
#225=VECTOR('',#844,10.);
#226=VECTOR('',#845,10.);
#227=VECTOR('',#848,10.);
#228=VECTOR('',#849,10.);
#229=VECTOR('',#854,10.);
#230=VECTOR('',#857,10.);
#231=VECTOR('',#860,10.);
#232=VECTOR('',#861,10.);
#233=VECTOR('',#862,10.);
#234=VECTOR('',#865,10.);
#235=VECTOR('',#866,10.);
#236=VECTOR('',#867,10.);
#237=VECTOR('',#872,10.);
#238=VECTOR('',#877,10.);
#239=VECTOR('',#878,10.);
#240=VECTOR('',#883,10.);
#241=VECTOR('',#886,10.);
#242=VECTOR('',#889,10.);
#243=VECTOR('',#892,10.);
#244=VECTOR('',#893,10.);
#245=VECTOR('',#894,10.);
#246=VECTOR('',#897,10.);
#247=VECTOR('',#898,10.);
#248=VECTOR('',#903,10.);
#249=VECTOR('',#906,10.);
#250=VECTOR('',#907,10.);
#251=VECTOR('',#908,10.);
#252=VECTOR('',#909,10.);
#253=VECTOR('',#912,10.);
#254=VECTOR('',#913,10.);
#255=VECTOR('',#914,10.);
#256=VECTOR('',#915,10.);
#257=VECTOR('',#916,10.);
#258=VECTOR('',#919,10.);
#259=VECTOR('',#920,10.);
#260=VECTOR('',#921,10.);
#261=VECTOR('',#922,10.);
#262=VECTOR('',#923,10.);
#263=VECTOR('',#924,10.);
#264=VECTOR('',#925,10.);
#265=VECTOR('',#926,10.);
#266=VECTOR('',#929,10.);
#267=VECTOR('',#932,10.);
#268=VECTOR('',#933,10.);
#269=VECTOR('',#938,10.);
#270=VECTOR('',#939,10.);
#271=VECTOR('',#940,10.);
#272=VECTOR('',#943,10.);
#273=VECTOR('',#950,10.);
#274=VECTOR('',#953,10.);
#275=VECTOR('',#956,10.);
#276=VECTOR('',#959,10.);
#277=VECTOR('',#960,10.);
#278=VECTOR('',#961,10.);
#279=VECTOR('',#962,10.);
#280=VECTOR('',#963,10.);
#281=VECTOR('',#964,10.);
#282=VECTOR('',#969,10.);
#283=VECTOR('',#972,10.);
#284=VECTOR('',#975,10.);
#285=VECTOR('',#976,10.);
#286=VECTOR('',#979,10.);
#287=VECTOR('',#982,10.);
#288=VECTOR('',#983,10.);
#289=VECTOR('',#986,10.);
#290=VECTOR('',#987,10.);
#291=VECTOR('',#994,10.);
#292=VECTOR('',#995,10.);
#293=VECTOR('',#998,10.);
#294=VECTOR('',#999,10.);
#295=VECTOR('',#1006,10.);
#296=VECTOR('',#1009,10.);
#297=CIRCLE('',#761,1.475);
#298=CIRCLE('',#762,1.475);
#299=CIRCLE('',#764,1.475);
#300=CIRCLE('',#765,1.475);
#301=CIRCLE('',#768,10.85);
#302=CIRCLE('',#770,1.25);
#303=CIRCLE('',#771,1.25);
#304=CIRCLE('',#774,1.25);
#305=CIRCLE('',#776,1.25);
#306=CIRCLE('',#779,1.25);
#307=CIRCLE('',#780,1.25);
#308=CIRCLE('',#782,1.25);
#309=CIRCLE('',#785,1.25);
#310=CIRCLE('',#811,9.89949508412564);
#311=CIRCLE('',#816,10.85);
#312=VERTEX_POINT('',#1018);
#313=VERTEX_POINT('',#1020);
#314=VERTEX_POINT('',#1024);
#315=VERTEX_POINT('',#1026);
#316=VERTEX_POINT('',#1030);
#317=VERTEX_POINT('',#1031);
#318=VERTEX_POINT('',#1033);
#319=VERTEX_POINT('',#1035);
#320=VERTEX_POINT('',#1037);
#321=VERTEX_POINT('',#1039);
#322=VERTEX_POINT('',#1043);
#323=VERTEX_POINT('',#1045);
#324=VERTEX_POINT('',#1047);
#325=VERTEX_POINT('',#1049);
#326=VERTEX_POINT('',#1053);
#327=VERTEX_POINT('',#1054);
#328=VERTEX_POINT('',#1056);
#329=VERTEX_POINT('',#1058);
#330=VERTEX_POINT('',#1062);
#331=VERTEX_POINT('',#1064);
#332=VERTEX_POINT('',#1068);
#333=VERTEX_POINT('',#1070);
#334=VERTEX_POINT('',#1072);
#335=VERTEX_POINT('',#1076);
#336=VERTEX_POINT('',#1080);
#337=VERTEX_POINT('',#1084);
#338=VERTEX_POINT('',#1085);
#339=VERTEX_POINT('',#1087);
#340=VERTEX_POINT('',#1089);
#341=VERTEX_POINT('',#1093);
#342=VERTEX_POINT('',#1095);
#343=VERTEX_POINT('',#1097);
#344=VERTEX_POINT('',#1099);
#345=VERTEX_POINT('',#1103);
#346=VERTEX_POINT('',#1107);
#347=VERTEX_POINT('',#1111);
#348=VERTEX_POINT('',#1113);
#349=VERTEX_POINT('',#1115);
#350=VERTEX_POINT('',#1119);
#351=VERTEX_POINT('',#1121);
#352=VERTEX_POINT('',#1123);
#353=VERTEX_POINT('',#1125);
#354=VERTEX_POINT('',#1129);
#355=VERTEX_POINT('',#1131);
#356=VERTEX_POINT('',#1133);
#357=VERTEX_POINT('',#1135);
#358=VERTEX_POINT('',#1137);
#359=VERTEX_POINT('',#1140);
#360=VERTEX_POINT('',#1146);
#361=VERTEX_POINT('',#1150);
#362=VERTEX_POINT('',#1151);
#363=VERTEX_POINT('',#1153);
#364=VERTEX_POINT('',#1157);
#365=VERTEX_POINT('',#1159);
#366=VERTEX_POINT('',#1161);
#367=VERTEX_POINT('',#1163);
#368=VERTEX_POINT('',#1165);
#369=VERTEX_POINT('',#1173);
#370=VERTEX_POINT('',#1176);
#371=VERTEX_POINT('',#1178);
#372=VERTEX_POINT('',#1187);
#373=VERTEX_POINT('',#1189);
#374=VERTEX_POINT('',#1191);
#375=VERTEX_POINT('',#1200);
#376=VERTEX_POINT('',#1204);
#377=VERTEX_POINT('',#1213);
#378=VERTEX_POINT('',#1222);
#379=VERTEX_POINT('',#1223);
#380=VERTEX_POINT('',#1228);
#381=VERTEX_POINT('',#1240);
#382=VERTEX_POINT('',#1244);
#383=EDGE_CURVE('',#312,#312,#297,.T.);
#384=EDGE_CURVE('',#312,#313,#137,.T.);
#385=EDGE_CURVE('',#313,#313,#298,.T.);
#386=EDGE_CURVE('',#314,#314,#299,.T.);
#387=EDGE_CURVE('',#314,#315,#138,.T.);
#388=EDGE_CURVE('',#315,#315,#300,.T.);
#389=EDGE_CURVE('',#316,#317,#139,.T.);
#390=EDGE_CURVE('',#318,#317,#140,.T.);
#391=EDGE_CURVE('',#319,#318,#141,.T.);
#392=EDGE_CURVE('',#320,#319,#142,.T.);
#393=EDGE_CURVE('',#321,#320,#143,.T.);
#394=EDGE_CURVE('',#316,#321,#144,.T.);
#395=EDGE_CURVE('',#322,#316,#145,.T.);
#396=EDGE_CURVE('',#323,#322,#146,.T.);
#397=EDGE_CURVE('',#323,#324,#301,.T.);
#398=EDGE_CURVE('',#325,#324,#147,.T.);
#399=EDGE_CURVE('',#317,#325,#148,.T.);
#400=EDGE_CURVE('',#326,#327,#302,.T.);
#401=EDGE_CURVE('',#327,#328,#149,.T.);
#402=EDGE_CURVE('',#328,#329,#303,.T.);
#403=EDGE_CURVE('',#329,#326,#150,.T.);
#404=EDGE_CURVE('',#330,#327,#151,.T.);
#405=EDGE_CURVE('',#331,#330,#152,.T.);
#406=EDGE_CURVE('',#331,#328,#153,.T.);
#407=EDGE_CURVE('',#326,#332,#154,.T.);
#408=EDGE_CURVE('',#333,#332,#155,.T.);
#409=EDGE_CURVE('',#333,#334,#156,.T.);
#410=EDGE_CURVE('',#330,#334,#304,.T.);
#411=EDGE_CURVE('',#334,#335,#157,.T.);
#412=EDGE_CURVE('',#335,#331,#305,.T.);
#413=EDGE_CURVE('',#336,#333,#158,.T.);
#414=EDGE_CURVE('',#335,#336,#159,.T.);
#415=EDGE_CURVE('',#337,#338,#306,.T.);
#416=EDGE_CURVE('',#338,#339,#160,.T.);
#417=EDGE_CURVE('',#339,#340,#307,.T.);
#418=EDGE_CURVE('',#340,#337,#161,.T.);
#419=EDGE_CURVE('',#337,#341,#162,.T.);
#420=EDGE_CURVE('',#342,#341,#308,.T.);
#421=EDGE_CURVE('',#342,#343,#163,.T.);
#422=EDGE_CURVE('',#344,#343,#164,.T.);
#423=EDGE_CURVE('',#344,#338,#165,.T.);
#424=EDGE_CURVE('',#340,#345,#166,.T.);
#425=EDGE_CURVE('',#341,#345,#167,.T.);
#426=EDGE_CURVE('',#345,#346,#309,.T.);
#427=EDGE_CURVE('',#346,#342,#168,.T.);
#428=EDGE_CURVE('',#347,#332,#169,.T.);
#429=EDGE_CURVE('',#348,#347,#170,.T.);
#430=EDGE_CURVE('',#349,#348,#171,.T.);
#431=EDGE_CURVE('',#336,#349,#172,.T.);
#432=EDGE_CURVE('',#343,#350,#173,.T.);
#433=EDGE_CURVE('',#351,#350,#174,.T.);
#434=EDGE_CURVE('',#352,#351,#175,.T.);
#435=EDGE_CURVE('',#353,#352,#176,.T.);
#436=EDGE_CURVE('',#344,#353,#177,.T.);
#437=EDGE_CURVE('',#354,#349,#178,.T.);
#438=EDGE_CURVE('',#354,#355,#179,.T.);
#439=EDGE_CURVE('',#355,#356,#180,.T.);
#440=EDGE_CURVE('',#356,#357,#181,.T.);
#441=EDGE_CURVE('',#357,#358,#182,.T.);
#442=EDGE_CURVE('',#358,#325,#183,.T.);
#443=EDGE_CURVE('',#324,#359,#184,.T.);
#444=EDGE_CURVE('',#359,#329,#185,.T.);
#445=EDGE_CURVE('',#346,#350,#186,.T.);
#446=EDGE_CURVE('',#360,#321,#187,.T.);
#447=EDGE_CURVE('',#322,#360,#188,.T.);
#448=EDGE_CURVE('',#361,#362,#20,.T.);
#449=EDGE_CURVE('',#363,#362,#189,.T.);
#450=EDGE_CURVE('',#363,#320,#190,.T.);
#451=EDGE_CURVE('',#357,#319,#191,.T.);
#452=EDGE_CURVE('',#356,#364,#21,.T.);
#453=EDGE_CURVE('',#364,#365,#192,.T.);
#454=EDGE_CURVE('',#365,#366,#22,.T.);
#455=EDGE_CURVE('',#367,#366,#23,.T.);
#456=EDGE_CURVE('',#367,#368,#24,.T.);
#457=EDGE_CURVE('',#368,#361,#193,.T.);
#458=EDGE_CURVE('',#360,#363,#194,.T.);
#459=EDGE_CURVE('',#358,#318,#195,.T.);
#460=EDGE_CURVE('',#339,#369,#196,.T.);
#461=EDGE_CURVE('',#323,#369,#197,.T.);
#462=EDGE_CURVE('',#370,#362,#198,.T.);
#463=EDGE_CURVE('',#370,#371,#199,.T.);
#464=EDGE_CURVE('',#371,#351,#200,.T.);
#465=EDGE_CURVE('',#366,#372,#201,.T.);
#466=EDGE_CURVE('',#373,#372,#25,.T.);
#467=EDGE_CURVE('',#374,#373,#26,.T.);
#468=EDGE_CURVE('',#367,#374,#202,.T.);
#469=EDGE_CURVE('',#370,#375,#27,.T.);
#470=EDGE_CURVE('',#361,#375,#203,.T.);
#471=EDGE_CURVE('',#375,#376,#204,.T.);
#472=EDGE_CURVE('',#368,#376,#205,.T.);
#473=EDGE_CURVE('',#376,#377,#28,.T.);
#474=EDGE_CURVE('',#374,#377,#206,.T.);
#475=EDGE_CURVE('',#378,#379,#29,.T.);
#476=EDGE_CURVE('',#372,#378,#207,.T.);
#477=EDGE_CURVE('',#365,#379,#208,.T.);
#478=EDGE_CURVE('',#379,#380,#209,.T.);
#479=EDGE_CURVE('',#364,#380,#210,.T.);
#480=EDGE_CURVE('',#380,#355,#30,.T.);
#481=EDGE_CURVE('',#371,#381,#211,.T.);
#482=EDGE_CURVE('',#352,#381,#212,.T.);
#483=EDGE_CURVE('',#354,#382,#213,.T.);
#484=EDGE_CURVE('',#381,#382,#214,.T.);
#485=EDGE_CURVE('',#378,#377,#310,.T.);
#486=EDGE_CURVE('',#382,#348,#215,.T.);
#487=EDGE_CURVE('',#347,#353,#216,.T.);
#488=EDGE_CURVE('',#369,#359,#311,.T.);
#489=ORIENTED_EDGE('',*,*,#383,.F.);
#490=ORIENTED_EDGE('',*,*,#384,.T.);
#491=ORIENTED_EDGE('',*,*,#385,.F.);
#492=ORIENTED_EDGE('',*,*,#384,.F.);
#493=ORIENTED_EDGE('',*,*,#386,.F.);
#494=ORIENTED_EDGE('',*,*,#387,.T.);
#495=ORIENTED_EDGE('',*,*,#388,.F.);
#496=ORIENTED_EDGE('',*,*,#387,.F.);
#497=ORIENTED_EDGE('',*,*,#389,.T.);
#498=ORIENTED_EDGE('',*,*,#390,.F.);
#499=ORIENTED_EDGE('',*,*,#391,.F.);
#500=ORIENTED_EDGE('',*,*,#392,.F.);
#501=ORIENTED_EDGE('',*,*,#393,.F.);
#502=ORIENTED_EDGE('',*,*,#394,.F.);
#503=ORIENTED_EDGE('',*,*,#389,.F.);
#504=ORIENTED_EDGE('',*,*,#395,.F.);
#505=ORIENTED_EDGE('',*,*,#396,.F.);
#506=ORIENTED_EDGE('',*,*,#397,.T.);
#507=ORIENTED_EDGE('',*,*,#398,.F.);
#508=ORIENTED_EDGE('',*,*,#399,.F.);
#509=ORIENTED_EDGE('',*,*,#400,.T.);
#510=ORIENTED_EDGE('',*,*,#401,.T.);
#511=ORIENTED_EDGE('',*,*,#402,.T.);
#512=ORIENTED_EDGE('',*,*,#403,.T.);
#513=ORIENTED_EDGE('',*,*,#401,.F.);
#514=ORIENTED_EDGE('',*,*,#404,.F.);
#515=ORIENTED_EDGE('',*,*,#405,.F.);
#516=ORIENTED_EDGE('',*,*,#406,.T.);
#517=ORIENTED_EDGE('',*,*,#400,.F.);
#518=ORIENTED_EDGE('',*,*,#407,.T.);
#519=ORIENTED_EDGE('',*,*,#408,.F.);
#520=ORIENTED_EDGE('',*,*,#409,.T.);
#521=ORIENTED_EDGE('',*,*,#410,.F.);
#522=ORIENTED_EDGE('',*,*,#404,.T.);
#523=ORIENTED_EDGE('',*,*,#383,.T.);
#524=ORIENTED_EDGE('',*,*,#410,.T.);
#525=ORIENTED_EDGE('',*,*,#411,.T.);
#526=ORIENTED_EDGE('',*,*,#412,.T.);
#527=ORIENTED_EDGE('',*,*,#405,.T.);
#528=ORIENTED_EDGE('',*,*,#411,.F.);
#529=ORIENTED_EDGE('',*,*,#409,.F.);
#530=ORIENTED_EDGE('',*,*,#413,.F.);
#531=ORIENTED_EDGE('',*,*,#414,.F.);
#532=ORIENTED_EDGE('',*,*,#415,.T.);
#533=ORIENTED_EDGE('',*,*,#416,.T.);
#534=ORIENTED_EDGE('',*,*,#417,.T.);
#535=ORIENTED_EDGE('',*,*,#418,.T.);
#536=ORIENTED_EDGE('',*,*,#415,.F.);
#537=ORIENTED_EDGE('',*,*,#419,.T.);
#538=ORIENTED_EDGE('',*,*,#420,.F.);
#539=ORIENTED_EDGE('',*,*,#421,.T.);
#540=ORIENTED_EDGE('',*,*,#422,.F.);
#541=ORIENTED_EDGE('',*,*,#423,.T.);
#542=ORIENTED_EDGE('',*,*,#386,.T.);
#543=ORIENTED_EDGE('',*,*,#418,.F.);
#544=ORIENTED_EDGE('',*,*,#424,.T.);
#545=ORIENTED_EDGE('',*,*,#425,.F.);
#546=ORIENTED_EDGE('',*,*,#419,.F.);
#547=ORIENTED_EDGE('',*,*,#420,.T.);
#548=ORIENTED_EDGE('',*,*,#425,.T.);
#549=ORIENTED_EDGE('',*,*,#426,.T.);
#550=ORIENTED_EDGE('',*,*,#427,.T.);
#551=ORIENTED_EDGE('',*,*,#413,.T.);
#552=ORIENTED_EDGE('',*,*,#408,.T.);
#553=ORIENTED_EDGE('',*,*,#428,.F.);
#554=ORIENTED_EDGE('',*,*,#429,.F.);
#555=ORIENTED_EDGE('',*,*,#430,.F.);
#556=ORIENTED_EDGE('',*,*,#431,.F.);
#557=ORIENTED_EDGE('',*,*,#422,.T.);
#558=ORIENTED_EDGE('',*,*,#432,.T.);
#559=ORIENTED_EDGE('',*,*,#433,.F.);
#560=ORIENTED_EDGE('',*,*,#434,.F.);
#561=ORIENTED_EDGE('',*,*,#435,.F.);
#562=ORIENTED_EDGE('',*,*,#436,.F.);
#563=ORIENTED_EDGE('',*,*,#402,.F.);
#564=ORIENTED_EDGE('',*,*,#406,.F.);
#565=ORIENTED_EDGE('',*,*,#412,.F.);
#566=ORIENTED_EDGE('',*,*,#414,.T.);
#567=ORIENTED_EDGE('',*,*,#431,.T.);
#568=ORIENTED_EDGE('',*,*,#437,.F.);
#569=ORIENTED_EDGE('',*,*,#438,.T.);
#570=ORIENTED_EDGE('',*,*,#439,.T.);
#571=ORIENTED_EDGE('',*,*,#440,.T.);
#572=ORIENTED_EDGE('',*,*,#441,.T.);
#573=ORIENTED_EDGE('',*,*,#442,.T.);
#574=ORIENTED_EDGE('',*,*,#398,.T.);
#575=ORIENTED_EDGE('',*,*,#443,.T.);
#576=ORIENTED_EDGE('',*,*,#444,.T.);
#577=ORIENTED_EDGE('',*,*,#385,.T.);
#578=ORIENTED_EDGE('',*,*,#427,.F.);
#579=ORIENTED_EDGE('',*,*,#445,.T.);
#580=ORIENTED_EDGE('',*,*,#432,.F.);
#581=ORIENTED_EDGE('',*,*,#421,.F.);
#582=ORIENTED_EDGE('',*,*,#395,.T.);
#583=ORIENTED_EDGE('',*,*,#394,.T.);
#584=ORIENTED_EDGE('',*,*,#446,.F.);
#585=ORIENTED_EDGE('',*,*,#447,.F.);
#586=ORIENTED_EDGE('',*,*,#448,.T.);
#587=ORIENTED_EDGE('',*,*,#449,.F.);
#588=ORIENTED_EDGE('',*,*,#450,.T.);
#589=ORIENTED_EDGE('',*,*,#392,.T.);
#590=ORIENTED_EDGE('',*,*,#451,.F.);
#591=ORIENTED_EDGE('',*,*,#440,.F.);
#592=ORIENTED_EDGE('',*,*,#452,.T.);
#593=ORIENTED_EDGE('',*,*,#453,.T.);
#594=ORIENTED_EDGE('',*,*,#454,.T.);
#595=ORIENTED_EDGE('',*,*,#455,.F.);
#596=ORIENTED_EDGE('',*,*,#456,.T.);
#597=ORIENTED_EDGE('',*,*,#457,.T.);
#598=ORIENTED_EDGE('',*,*,#458,.F.);
#599=ORIENTED_EDGE('',*,*,#446,.T.);
#600=ORIENTED_EDGE('',*,*,#393,.T.);
#601=ORIENTED_EDGE('',*,*,#450,.F.);
#602=ORIENTED_EDGE('',*,*,#441,.F.);
#603=ORIENTED_EDGE('',*,*,#451,.T.);
#604=ORIENTED_EDGE('',*,*,#391,.T.);
#605=ORIENTED_EDGE('',*,*,#459,.F.);
#606=ORIENTED_EDGE('',*,*,#417,.F.);
#607=ORIENTED_EDGE('',*,*,#460,.T.);
#608=ORIENTED_EDGE('',*,*,#461,.F.);
#609=ORIENTED_EDGE('',*,*,#396,.T.);
#610=ORIENTED_EDGE('',*,*,#447,.T.);
#611=ORIENTED_EDGE('',*,*,#458,.T.);
#612=ORIENTED_EDGE('',*,*,#449,.T.);
#613=ORIENTED_EDGE('',*,*,#462,.F.);
#614=ORIENTED_EDGE('',*,*,#463,.T.);
#615=ORIENTED_EDGE('',*,*,#464,.T.);
#616=ORIENTED_EDGE('',*,*,#433,.T.);
#617=ORIENTED_EDGE('',*,*,#445,.F.);
#618=ORIENTED_EDGE('',*,*,#426,.F.);
#619=ORIENTED_EDGE('',*,*,#424,.F.);
#620=ORIENTED_EDGE('',*,*,#388,.T.);
#621=ORIENTED_EDGE('',*,*,#455,.T.);
#622=ORIENTED_EDGE('',*,*,#465,.T.);
#623=ORIENTED_EDGE('',*,*,#466,.F.);
#624=ORIENTED_EDGE('',*,*,#467,.F.);
#625=ORIENTED_EDGE('',*,*,#468,.F.);
#626=ORIENTED_EDGE('',*,*,#469,.F.);
#627=ORIENTED_EDGE('',*,*,#462,.T.);
#628=ORIENTED_EDGE('',*,*,#448,.F.);
#629=ORIENTED_EDGE('',*,*,#470,.T.);
#630=ORIENTED_EDGE('',*,*,#471,.F.);
#631=ORIENTED_EDGE('',*,*,#470,.F.);
#632=ORIENTED_EDGE('',*,*,#457,.F.);
#633=ORIENTED_EDGE('',*,*,#472,.T.);
#634=ORIENTED_EDGE('',*,*,#473,.F.);
#635=ORIENTED_EDGE('',*,*,#472,.F.);
#636=ORIENTED_EDGE('',*,*,#456,.F.);
#637=ORIENTED_EDGE('',*,*,#468,.T.);
#638=ORIENTED_EDGE('',*,*,#474,.T.);
#639=ORIENTED_EDGE('',*,*,#475,.F.);
#640=ORIENTED_EDGE('',*,*,#476,.F.);
#641=ORIENTED_EDGE('',*,*,#465,.F.);
#642=ORIENTED_EDGE('',*,*,#454,.F.);
#643=ORIENTED_EDGE('',*,*,#477,.T.);
#644=ORIENTED_EDGE('',*,*,#478,.F.);
#645=ORIENTED_EDGE('',*,*,#477,.F.);
#646=ORIENTED_EDGE('',*,*,#453,.F.);
#647=ORIENTED_EDGE('',*,*,#479,.T.);
#648=ORIENTED_EDGE('',*,*,#480,.F.);
#649=ORIENTED_EDGE('',*,*,#479,.F.);
#650=ORIENTED_EDGE('',*,*,#452,.F.);
#651=ORIENTED_EDGE('',*,*,#439,.F.);
#652=ORIENTED_EDGE('',*,*,#399,.T.);
#653=ORIENTED_EDGE('',*,*,#442,.F.);
#654=ORIENTED_EDGE('',*,*,#459,.T.);
#655=ORIENTED_EDGE('',*,*,#390,.T.);
#656=ORIENTED_EDGE('',*,*,#481,.T.);
#657=ORIENTED_EDGE('',*,*,#482,.F.);
#658=ORIENTED_EDGE('',*,*,#434,.T.);
#659=ORIENTED_EDGE('',*,*,#464,.F.);
#660=ORIENTED_EDGE('',*,*,#475,.T.);
#661=ORIENTED_EDGE('',*,*,#478,.T.);
#662=ORIENTED_EDGE('',*,*,#480,.T.);
#663=ORIENTED_EDGE('',*,*,#438,.F.);
#664=ORIENTED_EDGE('',*,*,#483,.T.);
#665=ORIENTED_EDGE('',*,*,#484,.F.);
#666=ORIENTED_EDGE('',*,*,#481,.F.);
#667=ORIENTED_EDGE('',*,*,#463,.F.);
#668=ORIENTED_EDGE('',*,*,#469,.T.);
#669=ORIENTED_EDGE('',*,*,#471,.T.);
#670=ORIENTED_EDGE('',*,*,#473,.T.);
#671=ORIENTED_EDGE('',*,*,#485,.F.);
#672=ORIENTED_EDGE('',*,*,#474,.F.);
#673=ORIENTED_EDGE('',*,*,#467,.T.);
#674=ORIENTED_EDGE('',*,*,#466,.T.);
#675=ORIENTED_EDGE('',*,*,#476,.T.);
#676=ORIENTED_EDGE('',*,*,#485,.T.);
#677=ORIENTED_EDGE('',*,*,#430,.T.);
#678=ORIENTED_EDGE('',*,*,#486,.F.);
#679=ORIENTED_EDGE('',*,*,#483,.F.);
#680=ORIENTED_EDGE('',*,*,#437,.T.);
#681=ORIENTED_EDGE('',*,*,#435,.T.);
#682=ORIENTED_EDGE('',*,*,#482,.T.);
#683=ORIENTED_EDGE('',*,*,#484,.T.);
#684=ORIENTED_EDGE('',*,*,#486,.T.);
#685=ORIENTED_EDGE('',*,*,#429,.T.);
#686=ORIENTED_EDGE('',*,*,#487,.T.);
#687=ORIENTED_EDGE('',*,*,#461,.T.);
#688=ORIENTED_EDGE('',*,*,#488,.T.);
#689=ORIENTED_EDGE('',*,*,#443,.F.);
#690=ORIENTED_EDGE('',*,*,#397,.F.);
#691=ORIENTED_EDGE('',*,*,#403,.F.);
#692=ORIENTED_EDGE('',*,*,#444,.F.);
#693=ORIENTED_EDGE('',*,*,#488,.F.);
#694=ORIENTED_EDGE('',*,*,#460,.F.);
#695=ORIENTED_EDGE('',*,*,#416,.F.);
#696=ORIENTED_EDGE('',*,*,#423,.F.);
#697=ORIENTED_EDGE('',*,*,#436,.T.);
#698=ORIENTED_EDGE('',*,*,#487,.F.);
#699=ORIENTED_EDGE('',*,*,#428,.T.);
#700=ORIENTED_EDGE('',*,*,#407,.F.);
#701=CYLINDRICAL_SURFACE('',#760,1.475);
#702=CYLINDRICAL_SURFACE('',#763,1.475);
#703=CYLINDRICAL_SURFACE('',#769,1.25);
#704=CYLINDRICAL_SURFACE('',#775,1.25);
#705=CYLINDRICAL_SURFACE('',#778,1.25);
#706=CYLINDRICAL_SURFACE('',#784,1.25);
#707=CYLINDRICAL_SURFACE('',#812,9.89949508412564);
#708=CYLINDRICAL_SURFACE('',#815,10.85);
#709=ADVANCED_FACE('',(#59),#701,.F.);
#710=ADVANCED_FACE('',(#60),#702,.F.);
#711=ADVANCED_FACE('',(#61),#35,.F.);
#712=ADVANCED_FACE('',(#62),#36,.T.);
#713=ADVANCED_FACE('',(#63),#703,.T.);
#714=ADVANCED_FACE('',(#64),#37,.T.);
#715=ADVANCED_FACE('',(#65,#31),#38,.T.);
#716=ADVANCED_FACE('',(#66),#704,.T.);
#717=ADVANCED_FACE('',(#67),#39,.T.);
#718=ADVANCED_FACE('',(#68),#705,.T.);
#719=ADVANCED_FACE('',(#69,#32),#40,.T.);
#720=ADVANCED_FACE('',(#70),#41,.T.);
#721=ADVANCED_FACE('',(#71),#706,.T.);
#722=ADVANCED_FACE('',(#72),#42,.F.);
#723=ADVANCED_FACE('',(#73),#43,.F.);
#724=ADVANCED_FACE('',(#74,#33),#44,.T.);
#725=ADVANCED_FACE('',(#75),#45,.T.);
#726=ADVANCED_FACE('',(#76),#46,.T.);
#727=ADVANCED_FACE('',(#77),#47,.F.);
#728=ADVANCED_FACE('',(#78),#48,.F.);
#729=ADVANCED_FACE('',(#79),#49,.F.);
#730=ADVANCED_FACE('',(#80,#34),#50,.T.);
#731=ADVANCED_FACE('',(#81),#15,.T.);
#732=ADVANCED_FACE('',(#82),#16,.F.);
#733=ADVANCED_FACE('',(#83),#51,.F.);
#734=ADVANCED_FACE('',(#84),#17,.T.);
#735=ADVANCED_FACE('',(#85),#18,.T.);
#736=ADVANCED_FACE('',(#86),#52,.F.);
#737=ADVANCED_FACE('',(#87),#19,.F.);
#738=ADVANCED_FACE('',(#88),#53,.T.);
#739=ADVANCED_FACE('',(#89),#54,.T.);
#740=ADVANCED_FACE('',(#90),#55,.T.);
#741=ADVANCED_FACE('',(#91),#707,.F.);
#742=ADVANCED_FACE('',(#92),#56,.T.);
#743=ADVANCED_FACE('',(#93),#57,.T.);
#744=ADVANCED_FACE('',(#94),#708,.F.);
#745=ADVANCED_FACE('',(#95),#58,.T.);
#746=CLOSED_SHELL('',(#709,#710,#711,#712,#713,#714,#715,#716,#717,#718,
#719,#720,#721,#722,#723,#724,#725,#726,#727,#728,#729,#730,#731,#732,#733,
#734,#735,#736,#737,#738,#739,#740,#741,#742,#743,#744,#745));
#747=DERIVED_UNIT_ELEMENT(#749,1.);
#748=DERIVED_UNIT_ELEMENT(#1261,-3.);
#749=(
MASS_UNIT()
NAMED_UNIT(*)
SI_UNIT(.KILO.,.GRAM.)
);
#750=DERIVED_UNIT((#747,#748));
#751=MEASURE_REPRESENTATION_ITEM('density measure',
POSITIVE_RATIO_MEASURE(7850.),#750);
#752=PROPERTY_DEFINITION_REPRESENTATION(#757,#754);
#753=PROPERTY_DEFINITION_REPRESENTATION(#758,#755);
#754=REPRESENTATION('material name',(#756),#1258);
#755=REPRESENTATION('density',(#751),#1258);
#756=DESCRIPTIVE_REPRESENTATION_ITEM('Steel','Steel');
#757=PROPERTY_DEFINITION('material property','material name',#1268);
#758=PROPERTY_DEFINITION('material property','density of part',#1268);
#759=AXIS2_PLACEMENT_3D('',#1016,#818,#819);
#760=AXIS2_PLACEMENT_3D('',#1017,#820,#821);
#761=AXIS2_PLACEMENT_3D('',#1019,#822,#823);
#762=AXIS2_PLACEMENT_3D('',#1022,#825,#826);
#763=AXIS2_PLACEMENT_3D('',#1023,#827,#828);
#764=AXIS2_PLACEMENT_3D('',#1025,#829,#830);
#765=AXIS2_PLACEMENT_3D('',#1028,#832,#833);
#766=AXIS2_PLACEMENT_3D('',#1029,#834,#835);
#767=AXIS2_PLACEMENT_3D('',#1042,#842,#843);
#768=AXIS2_PLACEMENT_3D('',#1048,#846,#847);
#769=AXIS2_PLACEMENT_3D('',#1052,#850,#851);
#770=AXIS2_PLACEMENT_3D('',#1055,#852,#853);
#771=AXIS2_PLACEMENT_3D('',#1059,#855,#856);
#772=AXIS2_PLACEMENT_3D('',#1061,#858,#859);
#773=AXIS2_PLACEMENT_3D('',#1067,#863,#864);
#774=AXIS2_PLACEMENT_3D('',#1074,#868,#869);
#775=AXIS2_PLACEMENT_3D('',#1075,#870,#871);
#776=AXIS2_PLACEMENT_3D('',#1078,#873,#874);
#777=AXIS2_PLACEMENT_3D('',#1079,#875,#876);
#778=AXIS2_PLACEMENT_3D('',#1083,#879,#880);
#779=AXIS2_PLACEMENT_3D('',#1086,#881,#882);
#780=AXIS2_PLACEMENT_3D('',#1090,#884,#885);
#781=AXIS2_PLACEMENT_3D('',#1092,#887,#888);
#782=AXIS2_PLACEMENT_3D('',#1096,#890,#891);
#783=AXIS2_PLACEMENT_3D('',#1102,#895,#896);
#784=AXIS2_PLACEMENT_3D('',#1106,#899,#900);
#785=AXIS2_PLACEMENT_3D('',#1108,#901,#902);
#786=AXIS2_PLACEMENT_3D('',#1110,#904,#905);
#787=AXIS2_PLACEMENT_3D('',#1118,#910,#911);
#788=AXIS2_PLACEMENT_3D('',#1128,#917,#918);
#789=AXIS2_PLACEMENT_3D('',#1143,#927,#928);
#790=AXIS2_PLACEMENT_3D('',#1145,#930,#931);
#791=AXIS2_PLACEMENT_3D('',#1149,#934,#935);
#792=AXIS2_PLACEMENT_3D('',#1152,#936,#937);
#793=AXIS2_PLACEMENT_3D('',#1158,#941,#942);
#794=AXIS2_PLACEMENT_3D('',#1162,#944,#945);
#795=AXIS2_PLACEMENT_3D('',#1164,#946,#947);
#796=AXIS2_PLACEMENT_3D('',#1166,#948,#949);
#797=AXIS2_PLACEMENT_3D('',#1168,#951,#952);
#798=AXIS2_PLACEMENT_3D('',#1170,#954,#955);
#799=AXIS2_PLACEMENT_3D('',#1172,#957,#958);
#800=AXIS2_PLACEMENT_3D('',#1190,#965,#966);
#801=AXIS2_PLACEMENT_3D('',#1192,#967,#968);
#802=AXIS2_PLACEMENT_3D('',#1201,#970,#971);
#803=AXIS2_PLACEMENT_3D('',#1203,#973,#974);
#804=AXIS2_PLACEMENT_3D('',#1214,#977,#978);
#805=AXIS2_PLACEMENT_3D('',#1224,#980,#981);
#806=AXIS2_PLACEMENT_3D('',#1227,#984,#985);
#807=AXIS2_PLACEMENT_3D('',#1237,#988,#989);
#808=AXIS2_PLACEMENT_3D('',#1238,#990,#991);
#809=AXIS2_PLACEMENT_3D('',#1239,#992,#993);
#810=AXIS2_PLACEMENT_3D('',#1243,#996,#997);
#811=AXIS2_PLACEMENT_3D('',#1247,#1000,#1001);
#812=AXIS2_PLACEMENT_3D('',#1248,#1002,#1003);
#813=AXIS2_PLACEMENT_3D('',#1249,#1004,#1005);
#814=AXIS2_PLACEMENT_3D('',#1251,#1007,#1008);
#815=AXIS2_PLACEMENT_3D('',#1253,#1010,#1011);
#816=AXIS2_PLACEMENT_3D('',#1254,#1012,#1013);
#817=AXIS2_PLACEMENT_3D('',#1255,#1014,#1015);
#818=DIRECTION('axis',(0.,0.,1.));
#819=DIRECTION('refdir',(1.,0.,0.));
#820=DIRECTION('center_axis',(0.,0.,1.));
#821=DIRECTION('ref_axis',(1.,0.,0.));
#822=DIRECTION('center_axis',(0.,0.,1.));
#823=DIRECTION('ref_axis',(1.,0.,0.));
#824=DIRECTION('',(0.,0.,1.));
#825=DIRECTION('center_axis',(0.,-4.60450811966633E-16,-1.));
#826=DIRECTION('ref_axis',(1.,0.,0.));
#827=DIRECTION('center_axis',(0.,0.,1.));
#828=DIRECTION('ref_axis',(1.,0.,0.));
#829=DIRECTION('center_axis',(0.,0.,1.));
#830=DIRECTION('ref_axis',(1.,0.,0.));
#831=DIRECTION('',(0.,0.,1.));
#832=DIRECTION('center_axis',(0.,-4.60450811966633E-16,-1.));
#833=DIRECTION('ref_axis',(1.,0.,0.));
#834=DIRECTION('center_axis',(0.,0.,-1.));
#835=DIRECTION('ref_axis',(-1.,0.,0.));
#836=DIRECTION('',(0.,-1.,0.));
#837=DIRECTION('',(-0.901523057468273,0.432731067584771,8.10564617995758E-48));
#838=DIRECTION('',(-1.,0.,0.));
#839=DIRECTION('',(0.,-1.,0.));
#840=DIRECTION('',(1.,0.,0.));
#841=DIRECTION('',(0.901523057468274,0.432731067584771,-8.10564617995758E-48));
#842=DIRECTION('center_axis',(1.,0.,0.));
#843=DIRECTION('ref_axis',(0.,1.,0.));
#844=DIRECTION('',(0.,1.12984255761081E-47,-1.));
#845=DIRECTION('',(0.,1.,0.));
#846=DIRECTION('center_axis',(-1.,0.,0.));
#847=DIRECTION('ref_axis',(0.,1.,-5.11623513652146E-16));
#848=DIRECTION('',(0.,1.,0.));
#849=DIRECTION('',(0.,1.12984255761081E-47,1.));
#850=DIRECTION('center_axis',(0.,0.,-1.));
#851=DIRECTION('ref_axis',(-0.707106781186547,-0.707106781186547,0.));
#852=DIRECTION('center_axis',(0.,0.,1.));
#853=DIRECTION('ref_axis',(-0.707106781186547,-0.707106781186547,0.));
#854=DIRECTION('',(0.,0.,1.));
#855=DIRECTION('center_axis',(0.,-4.60450811966633E-16,-1.));
#856=DIRECTION('ref_axis',(-0.707106781186547,-0.707106781186547,0.));
#857=DIRECTION('',(0.,0.,-1.));
#858=DIRECTION('center_axis',(0.,-1.,0.));
#859=DIRECTION('ref_axis',(0.,0.,-1.));
#860=DIRECTION('',(-1.,0.,0.));
#861=DIRECTION('',(0.,0.,-1.));
#862=DIRECTION('',(-1.,0.,0.));
#863=DIRECTION('center_axis',(0.,0.,-1.));
#864=DIRECTION('ref_axis',(-1.,0.,0.));
#865=DIRECTION('',(0.,1.,0.));
#866=DIRECTION('',(-0.901523057468274,0.432731067584771,0.));
#867=DIRECTION('',(0.,-1.,0.));
#868=DIRECTION('center_axis',(0.,0.,1.));
#869=DIRECTION('ref_axis',(0.707106781186547,-0.707106781186547,0.));
#870=DIRECTION('center_axis',(0.,0.,-1.));
#871=DIRECTION('ref_axis',(0.707106781186547,-0.707106781186547,0.));
#872=DIRECTION('',(0.,0.,1.));
#873=DIRECTION('center_axis',(0.,-4.60450811966633E-16,-1.));
#874=DIRECTION('ref_axis',(0.707106781186547,-0.707106781186547,0.));
#875=DIRECTION('center_axis',(1.,0.,0.));
#876=DIRECTION('ref_axis',(0.,-1.,0.));
#877=DIRECTION('',(0.,0.,-1.));
#878=DIRECTION('',(0.,1.,0.));
#879=DIRECTION('center_axis',(0.,0.,-1.));
#880=DIRECTION('ref_axis',(-0.707106781186547,0.707106781186547,0.));
#881=DIRECTION('center_axis',(0.,0.,1.));
#882=DIRECTION('ref_axis',(-0.707106781186547,0.707106781186547,0.));
#883=DIRECTION('',(0.,0.,1.));
#884=DIRECTION('center_axis',(0.,-4.60450811966633E-16,-1.));
#885=DIRECTION('ref_axis',(-0.707106781186547,0.707106781186547,0.));
#886=DIRECTION('',(0.,0.,-1.));
#887=DIRECTION('center_axis',(0.,0.,-1.));
#888=DIRECTION('ref_axis',(-1.,0.,0.));
#889=DIRECTION('',(1.,0.,0.));
#890=DIRECTION('center_axis',(0.,0.,1.));
#891=DIRECTION('ref_axis',(0.707106781186703,0.707106781186392,0.));
#892=DIRECTION('',(0.,-1.,0.));
#893=DIRECTION('',(0.901523057468274,0.432731067584771,0.));
#894=DIRECTION('',(0.,1.,0.));
#895=DIRECTION('center_axis',(0.,1.,0.));
#896=DIRECTION('ref_axis',(0.,0.,1.));
#897=DIRECTION('',(1.,0.,0.));
#898=DIRECTION('',(0.,0.,1.));
#899=DIRECTION('center_axis',(0.,0.,-1.));
#900=DIRECTION('ref_axis',(0.707106781186703,0.707106781186392,0.));
#901=DIRECTION('center_axis',(0.,-4.60450811966633E-16,-1.));
#902=DIRECTION('ref_axis',(0.707106781186703,0.707106781186392,0.));
#903=DIRECTION('',(0.,0.,-1.));
#904=DIRECTION('center_axis',(0.432731067584771,0.901523057468274,0.));
#905=DIRECTION('ref_axis',(0.901523057468274,-0.432731067584771,0.));
#906=DIRECTION('',(0.,0.,1.));
#907=DIRECTION('',(-0.901523057468274,0.432731067584771,0.));
#908=DIRECTION('',(8.04509426146047E-16,-3.86164524550102E-16,-1.));
#909=DIRECTION('',(0.901523057468274,-0.432731067584771,1.99251371432596E-16));
#910=DIRECTION('center_axis',(0.432731067584771,-0.901523057468274,0.));
#911=DIRECTION('ref_axis',(-0.901523057468274,-0.432731067584771,0.));
#912=DIRECTION('',(0.,0.,1.));
#913=DIRECTION('',(-0.901523057468274,-0.432731067584771,9.96256857162983E-17));
#914=DIRECTION('',(0.,0.,1.));
#915=DIRECTION('',(0.901523057468274,0.432731067584771,0.));
#916=DIRECTION('',(0.,0.,-1.));
#917=DIRECTION('center_axis',(0.,4.60450811966633E-16,1.));
#918=DIRECTION('ref_axis',(0.,1.,-4.60450811966633E-16));
#919=DIRECTION('',(-1.,0.,0.));
#920=DIRECTION('',(0.,1.,-4.60450811966633E-16));
#921=DIRECTION('',(-1.,0.,0.));
#922=DIRECTION('',(0.,-1.,4.60450811966633E-16));
#923=DIRECTION('',(-1.,0.,0.));
#924=DIRECTION('',(-0.901523057468274,0.432731067584772,-1.99251371432596E-16));
#925=DIRECTION('',(-1.,0.,0.));
#926=DIRECTION('',(0.,-1.,0.));
#927=DIRECTION('center_axis',(1.,-4.40606354141311E-13,0.));
#928=DIRECTION('ref_axis',(-4.40606354141311E-13,-1.,0.));
#929=DIRECTION('',(-4.40606354141311E-13,-1.,0.));
#930=DIRECTION('center_axis',(0.432731067584771,-0.901523057468274,-1.01857911699507E-47));
#931=DIRECTION('ref_axis',(-0.901523057468274,-0.432731067584771,8.10564617995758E-48));
#932=DIRECTION('',(0.,0.,-1.));
#933=DIRECTION('',(0.901523057468274,0.432731067584771,-1.99251371432596E-16));
#934=DIRECTION('center_axis',(1.,0.,0.));
#935=DIRECTION('ref_axis',(0.,-1.,0.));
#936=DIRECTION('center_axis',(-1.,0.,2.35383866168919E-47));
#937=DIRECTION('ref_axis',(0.,1.,-1.42107839141522E-15));
#938=DIRECTION('',(0.,-1.,4.60450811966633E-16));
#939=DIRECTION('',(0.,0.,-1.));
#940=DIRECTION('',(0.,0.,-1.));
#941=DIRECTION('center_axis',(-1.,0.,2.35383866168919E-47));
#942=DIRECTION('ref_axis',(0.,1.,1.06580879356141E-15));
#943=DIRECTION('',(-1.66441113327494E-47,0.707108542655713,-0.707105019712994));
#944=DIRECTION('center_axis',(1.,0.,-2.35383866168919E-47));
#945=DIRECTION('ref_axis',(0.,-1.,-2.24297801828991E-16));
#946=DIRECTION('center_axis',(-1.,0.,0.));
#947=DIRECTION('ref_axis',(0.,-1.,-2.24297801828991E-16));
#948=DIRECTION('center_axis',(1.,0.,-2.35383866168919E-47));
#949=DIRECTION('ref_axis',(0.,-1.,-2.24297801828991E-16));
#950=DIRECTION('',(1.66441113327494E-47,0.707108542655712,0.707105019712995));
#951=DIRECTION('center_axis',(0.,1.,0.));
#952=DIRECTION('ref_axis',(1.,0.,0.));
#953=DIRECTION('',(1.,0.,0.));
#954=DIRECTION('center_axis',(0.,-1.,0.));
#955=DIRECTION('ref_axis',(-1.,0.,0.));
#956=DIRECTION('',(0.,0.,-1.));
#957=DIRECTION('center_axis',(0.,4.60450811966633E-16,1.));
#958=DIRECTION('ref_axis',(0.,1.,-4.60450811966633E-16));
#959=DIRECTION('',(0.,-1.,2.30225405983317E-16));
#960=DIRECTION('',(-1.,0.,0.));
#961=DIRECTION('',(-1.,0.,0.));
#962=DIRECTION('',(0.,1.,-4.60450811966633E-16));
#963=DIRECTION('',(-1.,0.,0.));
#964=DIRECTION('',(0.999997508906417,-0.00223207996286997,0.));
#965=DIRECTION('center_axis',(-0.999997508906417,0.00223207996286994,0.));
#966=DIRECTION('ref_axis',(-0.00223207996286994,-0.999997508906417,-2.24298360577198E-16));
#967=DIRECTION('center_axis',(-0.999997508906417,0.00223207996286994,0.));
#968=DIRECTION('ref_axis',(-0.00223207996286994,-0.999997508906417,-2.24298360577198E-16));
#969=DIRECTION('',(1.,0.,0.));
#970=DIRECTION('center_axis',(1.,0.,0.));
#971=DIRECTION('ref_axis',(0.,1.,-1.42107839141522E-15));
#972=DIRECTION('',(1.,0.,0.));
#973=DIRECTION('center_axis',(0.,0.707105019712995,-0.707108542655713));
#974=DIRECTION('ref_axis',(1.66441113327494E-47,0.707108542655712,0.707105019712995));
#975=DIRECTION('',(0.,-0.707108542655712,-0.707105019712995));
#976=DIRECTION('',(1.,0.,0.));
#977=DIRECTION('center_axis',(-1.,0.,0.));
#978=DIRECTION('ref_axis',(0.,-1.,-2.24297801828991E-16));
#979=DIRECTION('',(1.,0.,0.));
#980=DIRECTION('center_axis',(-1.,0.,0.));
#981=DIRECTION('ref_axis',(0.,-1.,-2.24297801828991E-16));
#982=DIRECTION('',(1.,0.,0.));
#983=DIRECTION('',(1.,0.,0.));
#984=DIRECTION('center_axis',(0.,-0.707105019712994,-0.707108542655713));
#985=DIRECTION('ref_axis',(-1.66441113327494E-47,0.707108542655713,-0.707105019712994));
#986=DIRECTION('',(0.,-0.707108542655713,0.707105019712994));
#987=DIRECTION('',(1.,0.,0.));
#988=DIRECTION('center_axis',(1.,0.,0.));
#989=DIRECTION('ref_axis',(0.,1.,1.06580879356141E-15));
#990=DIRECTION('center_axis',(0.432731067584772,0.901523057468274,-1.01857911699507E-47));
#991=DIRECTION('ref_axis',(0.901523057468274,-0.432731067584772,-8.10564617995758E-48));
#992=DIRECTION('center_axis',(0.,1.,0.));
#993=DIRECTION('ref_axis',(0.,0.,-1.));
#994=DIRECTION('',(0.,0.,-1.));
#995=DIRECTION('',(1.,0.,0.));
#996=DIRECTION('center_axis',(1.,0.,0.));
#997=DIRECTION('ref_axis',(0.,1.,0.));
#998=DIRECTION('',(0.,-3.86164524550102E-16,-1.));
#999=DIRECTION('',(0.,-1.,0.));
#1000=DIRECTION('center_axis',(1.,0.,0.));
#1001=DIRECTION('ref_axis',(0.,-0.707106781186547,-0.707106781186548));
#1002=DIRECTION('center_axis',(-1.,0.,0.));
#1003=DIRECTION('ref_axis',(0.,-0.707106781186547,-0.707106781186548));
#1004=DIRECTION('center_axis',(0.,-1.,3.86164524550102E-16));
#1005=DIRECTION('ref_axis',(0.,3.86164524550102E-16,1.));
#1006=DIRECTION('',(-1.,0.,0.));
#1007=DIRECTION('center_axis',(0.,0.,-1.));
#1008=DIRECTION('ref_axis',(-1.,0.,0.));
#1009=DIRECTION('',(0.,1.,0.));
#1010=DIRECTION('center_axis',(-1.,0.,0.));
#1011=DIRECTION('ref_axis',(0.,1.,-5.11623513652146E-16));
#1012=DIRECTION('center_axis',(-1.,0.,0.));
#1013=DIRECTION('ref_axis',(0.,1.,-5.11623513652146E-16));
#1014=DIRECTION('center_axis',(-1.,0.,0.));
#1015=DIRECTION('ref_axis',(0.,-1.,0.));
#1016=CARTESIAN_POINT('',(0.,0.,0.));
#1017=CARTESIAN_POINT('Origin',(-10.2499994691462,-16.4999996311963,22.5));
#1018=CARTESIAN_POINT('',(-11.7249994691462,-16.4999996311963,21.5));
#1019=CARTESIAN_POINT('Origin',(-10.2499994691462,-16.4999996311963,21.5));
#1020=CARTESIAN_POINT('',(-11.7249994691462,-16.4999996311963,24.5));
#1021=CARTESIAN_POINT('',(-11.7249994691462,-16.4999996311963,22.5));
#1022=CARTESIAN_POINT('Origin',(-10.2499994691462,-16.4999996311963,24.5));
#1023=CARTESIAN_POINT('Origin',(-10.2499994691462,16.4999996311963,22.5));
#1024=CARTESIAN_POINT('',(-11.7249994691462,16.4999996311963,21.5));
#1025=CARTESIAN_POINT('Origin',(-10.2499994691462,16.4999996311963,21.5));
#1026=CARTESIAN_POINT('',(-11.7249994691462,16.4999996311963,24.5));
#1027=CARTESIAN_POINT('',(-11.7249994691462,16.4999996311963,22.5));
#1028=CARTESIAN_POINT('Origin',(-10.2499994691462,16.4999996311963,24.5));
#1029=CARTESIAN_POINT('Origin',(0.364583333333339,0.,2.));
#1030=CARTESIAN_POINT('',(-10.7708333333333,11.81,2.));
#1031=CARTESIAN_POINT('',(-10.7708333333333,-11.81,2.));
#1032=CARTESIAN_POINT('',(-10.7708333333333,-5.905,2.));
#1033=CARTESIAN_POINT('',(11.5,-22.5,2.));
#1034=CARTESIAN_POINT('',(11.5,-22.5,2.));
#1035=CARTESIAN_POINT('',(13.5,-22.5,2.));
#1036=CARTESIAN_POINT('',(13.5,-22.5,2.));
#1037=CARTESIAN_POINT('',(13.5,22.5,2.));
#1038=CARTESIAN_POINT('',(13.5,-22.5,2.));
#1039=CARTESIAN_POINT('',(11.5,22.5,2.));
#1040=CARTESIAN_POINT('',(13.5,22.5,2.));
#1041=CARTESIAN_POINT('',(11.5,22.5,2.));
#1042=CARTESIAN_POINT('Origin',(-10.7708333333333,10.85,2.));
#1043=CARTESIAN_POINT('',(-10.7708333333333,11.81,24.5));
#1044=CARTESIAN_POINT('',(-10.7708333333333,11.81,13.25));
#1045=CARTESIAN_POINT('',(-10.7708333333333,10.85,24.5));
#1046=CARTESIAN_POINT('',(-10.7708333333333,10.85,24.5));
#1047=CARTESIAN_POINT('',(-10.7708333333333,-10.85,24.5));
#1048=CARTESIAN_POINT('Origin',(-10.7708333333333,0.,24.5));
#1049=CARTESIAN_POINT('',(-10.7708333333333,-11.81,24.5));
#1050=CARTESIAN_POINT('',(-10.7708333333333,-10.85,24.5));
#1051=CARTESIAN_POINT('',(-10.7708333333333,-11.81,13.25));
#1052=CARTESIAN_POINT('Origin',(-12.25,-18.2500002533197,18.7499999143183));
#1053=CARTESIAN_POINT('',(-13.5000004023314,-18.2500002533197,21.5));
#1054=CARTESIAN_POINT('',(-12.25,-19.5000002533197,21.5));
#1055=CARTESIAN_POINT('Origin',(-12.25,-18.2500002533197,21.5));
#1056=CARTESIAN_POINT('',(-12.25,-19.5000002533197,24.5));
#1057=CARTESIAN_POINT('',(-12.25,-19.5000002533197,18.7499999143183));
#1058=CARTESIAN_POINT('',(-13.5000004023314,-18.2500002533197,24.5));
#1059=CARTESIAN_POINT('Origin',(-12.25,-18.2500002533197,24.5));
#1060=CARTESIAN_POINT('',(-13.5,-18.2500002533197,18.7499999143183));
#1061=CARTESIAN_POINT('Origin',(-7.0000003054738,-19.5000002533197,24.5));
#1062=CARTESIAN_POINT('',(-8.2500003054738,-19.5000002533197,21.5));
#1063=CARTESIAN_POINT('',(-13.5000004023314,-19.5000002533197,21.5));
#1064=CARTESIAN_POINT('',(-8.2500003054738,-19.5000002533197,24.5));
#1065=CARTESIAN_POINT('',(-8.2500003054738,-19.5000002533197,24.5));
#1066=CARTESIAN_POINT('',(-13.5000004023314,-19.5000002533197,24.5));
#1067=CARTESIAN_POINT('Origin',(-10.2500003539026,-14.5000002160668,21.5));
#1068=CARTESIAN_POINT('',(-13.5000004023314,-12.0000001788139,21.5));
#1069=CARTESIAN_POINT('',(-13.5000004023314,-17.0000002533197,21.5));
#1070=CARTESIAN_POINT('',(-7.0000003054738,-15.1200002253056,21.5));
#1071=CARTESIAN_POINT('',(-11.6916453688828,-12.8680105948692,21.5));
#1072=CARTESIAN_POINT('',(-7.0000003054738,-18.2500002533197,21.5));
#1073=CARTESIAN_POINT('',(-7.0000003054738,-17.0000002533197,21.5));
#1074=CARTESIAN_POINT('Origin',(-8.2500003054738,-18.2500002533197,21.5));
#1075=CARTESIAN_POINT('Origin',(-8.2500003054738,-18.2500002533197,24.5));
#1076=CARTESIAN_POINT('',(-7.0000003054738,-18.2500002533197,24.5));
#1077=CARTESIAN_POINT('',(-7.0000003054738,-18.2500002533197,24.5));
#1078=CARTESIAN_POINT('Origin',(-8.2500003054738,-18.2500002533197,24.5));
#1079=CARTESIAN_POINT('Origin',(-7.0000003054738,-13.6199998533726,24.5));
#1080=CARTESIAN_POINT('',(-7.0000003054738,-15.1200002253056,24.5));
#1081=CARTESIAN_POINT('',(-7.0000003054738,-15.1200002253056,24.5));
#1082=CARTESIAN_POINT('',(-7.0000003054738,-17.0000002533197,24.5));
#1083=CARTESIAN_POINT('Origin',(-12.25,18.2500002533197,18.7499999143183));
#1084=CARTESIAN_POINT('',(-12.25,19.5000002533197,21.5));
#1085=CARTESIAN_POINT('',(-13.5000004023314,18.2500002533197,21.5));
#1086=CARTESIAN_POINT('Origin',(-12.25,18.2500002533197,21.5));
#1087=CARTESIAN_POINT('',(-13.5,18.2500002533197,24.5));
#1088=CARTESIAN_POINT('',(-13.5,18.2500002533197,18.7499999143183));
#1089=CARTESIAN_POINT('',(-12.25,19.5000002533197,24.5));
#1090=CARTESIAN_POINT('Origin',(-12.25,18.2500002533197,24.5));
#1091=CARTESIAN_POINT('',(-12.25,19.5000002533197,18.7499999143183));
#1092=CARTESIAN_POINT('Origin',(-10.2499999720603,14.4527574862901,21.5));
#1093=CARTESIAN_POINT('',(-8.25000030547325,19.5000002533197,21.5));
#1094=CARTESIAN_POINT('',(-8.50000032782555,19.5000002533197,21.5));
#1095=CARTESIAN_POINT('',(-7.0000003054738,18.2500002533192,21.5));
#1096=CARTESIAN_POINT('Origin',(-8.25000030547325,18.2500002533197,21.5));
#1097=CARTESIAN_POINT('',(-7.00000030547463,15.1200002253052,21.5));
#1098=CARTESIAN_POINT('',(-7.0000003054738,17.0000002533197,21.5));
#1099=CARTESIAN_POINT('',(-13.5000004023314,12.0000001788139,21.5));
#1100=CARTESIAN_POINT('',(0.799139875716151,18.8635875122767,21.5));
#1101=CARTESIAN_POINT('',(-13.5000004023314,11.9055147192604,21.5));
#1102=CARTESIAN_POINT('Origin',(-13.5000004023314,19.5000002533197,24.5));
#1103=CARTESIAN_POINT('',(-8.25000030547325,19.5000002533197,24.5));
#1104=CARTESIAN_POINT('',(-8.50000032782555,19.5000002533197,24.5));
#1105=CARTESIAN_POINT('',(-8.25000030547325,19.5000002533197,24.5));
#1106=CARTESIAN_POINT('Origin',(-8.25000030547325,18.2500002533197,24.5));
#1107=CARTESIAN_POINT('',(-7.00000030547325,18.2500002533192,24.5));
#1108=CARTESIAN_POINT('Origin',(-8.25000030547325,18.2500002533197,24.5));
#1109=CARTESIAN_POINT('',(-7.00000030547325,18.2500002533192,24.5));
#1110=CARTESIAN_POINT('Origin',(-13.5000004023314,-12.0000001788139,24.5));
#1111=CARTESIAN_POINT('',(-13.5000004023314,-12.0000001788139,-3.42726704793961E-7));
#1112=CARTESIAN_POINT('',(-13.5,-12.000000371933,18.7499999143183));
#1113=CARTESIAN_POINT('',(11.4999999701977,-24.0000003576279,-3.42726704793961E-7));
#1114=CARTESIAN_POINT('',(-8.94050749561838,-14.1885567740362,-3.42726700353069E-7));
#1115=CARTESIAN_POINT('',(11.4999999701977,-24.0000003576279,24.5));
#1116=CARTESIAN_POINT('',(11.4999999701977,-24.0000003576279,12.9999998286367));
#1117=CARTESIAN_POINT('',(0.422301486551142,-18.6827050854775,24.5));
#1118=CARTESIAN_POINT('Origin',(11.4999999701977,24.0000003576279,24.5));
#1119=CARTESIAN_POINT('',(-7.00000030547463,15.1200002253052,24.5));
#1120=CARTESIAN_POINT('',(-7.00000030547463,15.1200002253052,24.5));
#1121=CARTESIAN_POINT('',(11.4999999701977,24.0000003576279,24.5));
#1122=CARTESIAN_POINT('',(11.9816650110443,24.2311995772342,24.5));
#1123=CARTESIAN_POINT('',(11.4999999701977,24.0000003576279,-3.42726704793961E-7));
#1124=CARTESIAN_POINT('',(11.4999999701977,24.0000003576279,24.5));
#1125=CARTESIAN_POINT('',(-13.5000004023314,12.0000001788139,-3.42726704793961E-7));
#1126=CARTESIAN_POINT('',(12.9223016728157,24.6827051748845,-3.42726700353069E-7));
#1127=CARTESIAN_POINT('',(-13.5,12.000000371933,18.7499999143183));
#1128=CARTESIAN_POINT('Origin',(15.,-24.0000003576279,24.5));
#1129=CARTESIAN_POINT('',(15.,-24.0000003576279,24.5));
#1130=CARTESIAN_POINT('',(15.,-24.0000003576279,24.5));
#1131=CARTESIAN_POINT('',(15.,-19.1776536811034,24.5));
#1132=CARTESIAN_POINT('',(15.,-24.0000003576279,24.5));
#1133=CARTESIAN_POINT('',(13.5,-19.1776536811034,24.5));
#1134=CARTESIAN_POINT('',(13.5,-19.1776536811034,24.5));
#1135=CARTESIAN_POINT('',(13.5,-22.5,24.5));
#1136=CARTESIAN_POINT('',(13.5,-0.750000178813934,24.5));
#1137=CARTESIAN_POINT('',(11.5,-22.5,24.5));
#1138=CARTESIAN_POINT('',(14.25,-22.5,24.5));
#1139=CARTESIAN_POINT('',(13.2148895365984,-23.3231469775672,24.5));
#1140=CARTESIAN_POINT('',(-13.5,-10.85,24.5));
#1141=CARTESIAN_POINT('',(-9.,-10.85,24.5));
#1142=CARTESIAN_POINT('',(-13.5000004023314,-12.0000001788139,24.5));
#1143=CARTESIAN_POINT('Origin',(-7.0000003054738,17.0000002533197,24.5));
#1144=CARTESIAN_POINT('',(-7.0000003054738,17.0000002533197,24.5));
#1145=CARTESIAN_POINT('Origin',(11.5,22.5,24.5));
#1146=CARTESIAN_POINT('',(11.5,22.5,24.5));
#1147=CARTESIAN_POINT('',(11.5,22.5,24.5));
#1148=CARTESIAN_POINT('',(-8.28333611223776,13.0039986661259,24.5));
#1149=CARTESIAN_POINT('Origin',(13.5,22.5,24.5));
#1150=CARTESIAN_POINT('',(13.5,10.3389980879252,20.8388347648319));
#1151=CARTESIAN_POINT('',(13.5,19.1778768896507,24.5));
#1152=CARTESIAN_POINT('Origin',(13.5,19.1778768896507,12.));
#1153=CARTESIAN_POINT('',(13.5,22.5,24.5));
#1154=CARTESIAN_POINT('',(13.5,-0.750000178813934,24.5));
#1155=CARTESIAN_POINT('',(13.5,22.5,24.5));
#1156=CARTESIAN_POINT('',(13.5,-22.5,24.5));
#1157=CARTESIAN_POINT('',(13.5,-10.3387748793778,20.8388347648318));
#1158=CARTESIAN_POINT('Origin',(13.5,-19.1776536811034,12.));
#1159=CARTESIAN_POINT('',(13.5,-6.99992337547546,17.4999998956919));
#1160=CARTESIAN_POINT('',(13.5,-14.2944026393003,24.794442817101));
#1161=CARTESIAN_POINT('',(13.5,-4.12301491768455,15.5));
#1162=CARTESIAN_POINT('Origin',(13.5,0.000111604273667076,24.5));
#1163=CARTESIAN_POINT('',(13.5,4.12323812623188,15.5));
#1164=CARTESIAN_POINT('Origin',(13.5,0.000111604273667076,24.5));
#1165=CARTESIAN_POINT('',(13.5,7.00014658402279,17.4999998956919));
#1166=CARTESIAN_POINT('Origin',(13.5,0.000111604273667076,24.5));
#1167=CARTESIAN_POINT('',(13.5,1.3750366001026,11.8749179370875));
#1168=CARTESIAN_POINT('Origin',(11.5,22.5,24.5));
#1169=CARTESIAN_POINT('',(13.25,22.5,24.5));
#1170=CARTESIAN_POINT('Origin',(13.5,-22.5,24.5));
#1171=CARTESIAN_POINT('',(11.5,-22.5,24.5));
#1172=CARTESIAN_POINT('Origin',(15.,-24.0000003576279,24.5));
#1173=CARTESIAN_POINT('',(-13.5,10.85,24.5));
#1174=CARTESIAN_POINT('',(-13.5,9.58883486913997,24.5));
#1175=CARTESIAN_POINT('',(-9.,10.85,24.5));
#1176=CARTESIAN_POINT('',(15.,19.1778768896507,24.5));
#1177=CARTESIAN_POINT('',(13.5,19.1778768896507,24.5));
#1178=CARTESIAN_POINT('',(15.,24.0000003576279,24.5));
#1179=CARTESIAN_POINT('',(15.,-24.0000003576279,24.5));
#1180=CARTESIAN_POINT('',(15.,24.0000003576279,24.5));
#1181=CARTESIAN_POINT('Ctrl Pts',(13.5592033678428,4.12321520150662,15.5000500377673));
#1182=CARTESIAN_POINT('Ctrl Pts',(13.5500001463625,6.60727623043586E-5,
13.6110805171523));
#1183=CARTESIAN_POINT('Ctrl Pts',(13.5407968737143,-4.12310597979576,15.5));
#1184=CARTESIAN_POINT('Ctrl Pts',(13.5000002437922,4.12334734794274,15.5000500377673));
#1185=CARTESIAN_POINT('Ctrl Pts',(13.4907970223119,0.000198219198426037,
13.6110805171523));
#1186=CARTESIAN_POINT('Ctrl Pts',(13.4815937496637,-4.12297383335964,15.5));
#1187=CARTESIAN_POINT('',(13.5407968737143,-4.12310597979576,15.5));
#1188=CARTESIAN_POINT('',(13.5407968737143,-4.12310597979576,15.5));
#1189=CARTESIAN_POINT('',(13.5499999988824,0.,14.6005049158744));
#1190=CARTESIAN_POINT('Origin',(13.5499999988824,0.,24.5));
#1191=CARTESIAN_POINT('',(13.5592031240506,4.12319957264856,15.5));
#1192=CARTESIAN_POINT('Origin',(13.5499999988824,0.,24.5));
#1193=CARTESIAN_POINT('',(13.5,4.12323812623188,15.5));
#1194=CARTESIAN_POINT('Ctrl Pts',(13.5,19.1778768896507,24.5));
#1195=CARTESIAN_POINT('Ctrl Pts',(13.5,14.0001815637719,24.5));
#1196=CARTESIAN_POINT('Ctrl Pts',(13.5,10.3389980879252,20.8388347648319));
#1197=CARTESIAN_POINT('Ctrl Pts',(15.,19.1778768896507,24.5));
#1198=CARTESIAN_POINT('Ctrl Pts',(15.,14.0001815637719,24.5));
#1199=CARTESIAN_POINT('Ctrl Pts',(15.,10.3389980879252,20.8388347648319));
#1200=CARTESIAN_POINT('',(15.,10.3389980879252,20.8388347648319));
#1201=CARTESIAN_POINT('Origin',(15.,19.1778768896507,12.));
#1202=CARTESIAN_POINT('',(13.5,10.3389980879252,20.8388347648319));
#1203=CARTESIAN_POINT('Origin',(13.5,7.00014658402279,17.4999998956919));
#1204=CARTESIAN_POINT('',(15.,7.00014658402279,17.4999998956919));
#1205=CARTESIAN_POINT('',(15.,4.12510120224627,14.6249688379117));
#1206=CARTESIAN_POINT('',(13.5,7.00014658402279,17.4999998956919));
#1207=CARTESIAN_POINT('Ctrl Pts',(13.5,4.12323812623188,15.5));
#1208=CARTESIAN_POINT('Ctrl Pts',(13.5,5.74149912318941,16.2413587056679));
#1209=CARTESIAN_POINT('Ctrl Pts',(13.5,7.0001465840228,17.4999998956919));
#1210=CARTESIAN_POINT('Ctrl Pts',(15.,4.12323812623188,15.5));
#1211=CARTESIAN_POINT('Ctrl Pts',(15.,5.74149912318941,16.2413587056679));
#1212=CARTESIAN_POINT('Ctrl Pts',(15.,7.0001465840228,17.4999998956919));
#1213=CARTESIAN_POINT('',(15.,4.12319957264856,15.5));
#1214=CARTESIAN_POINT('Origin',(15.,0.000111604273667076,24.5));
#1215=CARTESIAN_POINT('',(13.5,4.12323812623188,15.5));
#1216=CARTESIAN_POINT('Ctrl Pts',(13.5,-6.99992337547546,17.4999998956919));
#1217=CARTESIAN_POINT('Ctrl Pts',(13.5,-5.74127591464208,16.2413587056679));
#1218=CARTESIAN_POINT('Ctrl Pts',(13.5,-4.12301491768455,15.5));
#1219=CARTESIAN_POINT('Ctrl Pts',(15.0000000223517,-6.99992337547546,17.4999998956919));
#1220=CARTESIAN_POINT('Ctrl Pts',(15.0000000223517,-5.74127591464208,16.2413587056679));
#1221=CARTESIAN_POINT('Ctrl Pts',(15.0000000223517,-4.12301491768455,15.5));
#1222=CARTESIAN_POINT('',(15.0000000204853,-4.12307941236242,15.5));
#1223=CARTESIAN_POINT('',(15.,-6.99992337547546,17.4999998956919));
#1224=CARTESIAN_POINT('Origin',(15.,0.000111604273667076,24.5));
#1225=CARTESIAN_POINT('',(15.,-4.12310597979575,15.5));
#1226=CARTESIAN_POINT('',(13.5,-6.99992337547546,17.4999998956919));
#1227=CARTESIAN_POINT('Origin',(13.5,-10.3387748793778,20.8388347648318));
#1228=CARTESIAN_POINT('',(15.,-10.3387748793778,20.8388347648318));
#1229=CARTESIAN_POINT('',(15.,-5.79435954806497,16.2944420746185));
#1230=CARTESIAN_POINT('',(13.5,-10.3387748793778,20.8388347648318));
#1231=CARTESIAN_POINT('Ctrl Pts',(13.5,-10.3387748793778,20.8388347648318));
#1232=CARTESIAN_POINT('Ctrl Pts',(13.5,-13.9999583552246,24.5));
#1233=CARTESIAN_POINT('Ctrl Pts',(13.5,-19.1776536811034,24.5));
#1234=CARTESIAN_POINT('Ctrl Pts',(15.,-10.3387748793778,20.8388347648318));
#1235=CARTESIAN_POINT('Ctrl Pts',(15.,-13.9999583552246,24.5));
#1236=CARTESIAN_POINT('Ctrl Pts',(15.,-19.1776536811034,24.5));
#1237=CARTESIAN_POINT('Origin',(15.,-19.1776536811034,12.));
#1238=CARTESIAN_POINT('Origin',(-12.7708333333333,-10.85,24.5));
#1239=CARTESIAN_POINT('Origin',(15.,24.0000003576279,24.5));
#1240=CARTESIAN_POINT('',(15.,24.0000003576279,-3.42726704793961E-7));
#1241=CARTESIAN_POINT('',(15.,24.0000003576279,24.5));
#1242=CARTESIAN_POINT('',(15.,24.0000003576279,-3.42726704793961E-7));
#1243=CARTESIAN_POINT('Origin',(15.,-4.44089209850063E-15,12.9999998286366));
#1244=CARTESIAN_POINT('',(15.,-24.0000003576279,-3.42726704793961E-7));
#1245=CARTESIAN_POINT('',(15.,-24.0000003576279,24.5));
#1246=CARTESIAN_POINT('',(15.,-24.0000003576279,-3.42726704793961E-7));
#1247=CARTESIAN_POINT('Origin',(15.,0.,24.5));
#1248=CARTESIAN_POINT('Origin',(15.,0.,24.5));
#1249=CARTESIAN_POINT('Origin',(15.,-24.0000003576279,1.49999965727329));
#1250=CARTESIAN_POINT('',(15.,-24.0000003576279,-3.42726704793961E-7));
#1251=CARTESIAN_POINT('Origin',(15.,24.0000003576279,-3.42726704793961E-7));
#1252=CARTESIAN_POINT('',(-13.5,12.0000001788139,-3.42726704793961E-7));
#1253=CARTESIAN_POINT('Origin',(-9.,0.,24.5));
#1254=CARTESIAN_POINT('Origin',(-13.5,0.,24.5));
#1255=CARTESIAN_POINT('Origin',(-13.5,-8.88178419700125E-15,12.9999998286367));
#1256=UNCERTAINTY_MEASURE_WITH_UNIT(LENGTH_MEASURE(0.01),#1260,
'DISTANCE_ACCURACY_VALUE',
'Maximum model space distance between geometric entities at asserted c
onnectivities');
#1257=UNCERTAINTY_MEASURE_WITH_UNIT(LENGTH_MEASURE(0.01),#1260,
'DISTANCE_ACCURACY_VALUE',
'Maximum model space distance between geometric entities at asserted c
onnectivities');
#1258=(
GEOMETRIC_REPRESENTATION_CONTEXT(3)
GLOBAL_UNCERTAINTY_ASSIGNED_CONTEXT((#1256))
GLOBAL_UNIT_ASSIGNED_CONTEXT((#1260,#1262,#1263))
REPRESENTATION_CONTEXT('','3D')
);
#1259=(
GEOMETRIC_REPRESENTATION_CONTEXT(3)
GLOBAL_UNCERTAINTY_ASSIGNED_CONTEXT((#1257))
GLOBAL_UNIT_ASSIGNED_CONTEXT((#1260,#1262,#1263))
REPRESENTATION_CONTEXT('','3D')
);
#1260=(
LENGTH_UNIT()
NAMED_UNIT(*)
SI_UNIT(.MILLI.,.METRE.)
);
#1261=(
LENGTH_UNIT()
NAMED_UNIT(*)
SI_UNIT($,.METRE.)
);
#1262=(
NAMED_UNIT(*)
PLANE_ANGLE_UNIT()
SI_UNIT($,.RADIAN.)
);
#1263=(
NAMED_UNIT(*)
SI_UNIT($,.STERADIAN.)
SOLID_ANGLE_UNIT()
);
#1264=SHAPE_DEFINITION_REPRESENTATION(#1265,#1266);
#1265=PRODUCT_DEFINITION_SHAPE('',$,#1268);
#1266=SHAPE_REPRESENTATION('',(#759),#1258);
#1267=PRODUCT_DEFINITION_CONTEXT('part definition',#1272,'design');
#1268=PRODUCT_DEFINITION('Target','Target v4',#1269,#1267);
#1269=PRODUCT_DEFINITION_FORMATION('',$,#1274);
#1270=PRODUCT_RELATED_PRODUCT_CATEGORY('Target v4','Target v4',(#1274));
#1271=APPLICATION_PROTOCOL_DEFINITION('international standard',
'automotive_design',2009,#1272);
#1272=APPLICATION_CONTEXT(
'Core Data for Automotive Mechanical Design Process');
#1273=PRODUCT_CONTEXT('part definition',#1272,'mechanical');
#1274=PRODUCT('Target','Target v4',$,(#1273));
#1275=PRESENTATION_STYLE_ASSIGNMENT((#1276));
#1276=SURFACE_STYLE_USAGE(.BOTH.,#1277);
#1277=SURFACE_SIDE_STYLE('',(#1278));
#1278=SURFACE_STYLE_FILL_AREA(#1279);
#1279=FILL_AREA_STYLE('Steel - Satin',(#1280));
#1280=FILL_AREA_STYLE_COLOUR('Steel - Satin',#1281);
#1281=COLOUR_RGB('Steel - Satin',0.627450980392157,0.627450980392157,0.627450980392157);
ENDSEC;
END-ISO-10303-21;
